<svg width="223" height="223" viewBox="0 0 223 223" fill="none" xmlns="http://www.w3.org/2000/svg">
<path d="M100.396 0.612643C87.396 2.11264 75.296 5.41264 64.596 10.3126C60.296 12.2126 56.496 13.9126 56.096 14.1126C55.696 14.2126 54.596 15.0126 53.596 15.9126C52.596 16.7126 51.496 17.4126 51.096 17.4126C50.796 17.4126 49.396 18.4126 47.996 19.6126C46.696 20.9126 45.196 21.9126 44.796 21.9126C43.696 21.9126 42.396 23.1126 32.796 32.7126C23.396 42.1126 22.396 43.2126 21.596 45.2126C21.296 46.1126 20.496 46.9126 19.896 46.9126C19.396 46.9126 18.896 47.6126 18.896 48.4126C18.896 49.2126 18.396 49.9126 17.796 49.9126C17.296 49.9126 16.996 50.3126 17.296 50.7126C17.596 51.2126 16.796 52.7126 15.596 54.0126C14.396 55.3126 13.496 56.5126 13.596 56.6126C13.696 56.7126 12.196 60.3126 10.296 64.6126C1.99601 82.8126 -1.50399 104.013 0.596007 122.413C1.29601 128.413 2.89601 136.813 3.99601 140.913C5.19601 145.013 6.19601 148.813 6.29601 149.413C6.49601 149.913 8.19601 153.913 10.196 158.213C12.196 162.413 13.796 166.213 13.796 166.413C13.796 166.713 14.796 167.913 15.796 169.113C16.896 170.213 17.596 171.613 17.296 172.113C16.996 172.513 17.296 172.913 17.796 172.913C18.396 172.913 18.896 173.613 18.896 174.413C18.896 175.213 19.396 175.913 19.896 175.913C20.496 175.913 21.296 176.713 21.596 177.613C22.396 179.613 23.396 180.713 32.796 190.113C42.396 199.713 43.696 200.913 44.796 200.913C45.196 200.913 46.896 202.113 48.496 203.613C50.096 205.113 51.496 206.113 51.596 205.813C51.696 205.613 52.596 206.113 53.596 206.913C54.596 207.813 55.696 208.613 56.096 208.713C56.496 208.913 60.196 210.613 64.296 212.413C82.096 220.713 104.096 224.313 122.396 222.213C128.496 221.513 136.796 219.913 140.896 218.813C144.996 217.613 148.896 216.613 149.396 216.513C149.996 216.413 153.896 214.613 158.196 212.613C162.496 210.613 166.296 208.913 166.696 208.713C167.096 208.613 168.096 207.913 168.896 207.213C169.696 206.513 170.796 205.813 171.396 205.613C171.896 205.513 173.396 204.413 174.796 203.113C176.096 201.913 177.596 200.913 177.996 200.913C179.096 200.913 180.396 199.713 189.996 190.113C199.396 180.713 200.396 179.613 201.196 177.613C201.496 176.713 202.296 175.913 202.896 175.913C203.396 175.913 203.896 175.213 203.896 174.413C203.896 173.613 204.396 172.913 204.996 172.913C205.496 172.913 205.796 172.513 205.496 172.113C205.196 171.613 205.896 170.213 206.996 169.113C207.996 167.913 208.896 166.813 208.896 166.713C208.796 166.513 210.496 162.813 212.496 158.413C214.596 154.013 216.396 149.913 216.496 149.413C216.596 148.813 217.596 145.013 218.796 140.913C219.896 136.813 221.396 128.413 222.196 122.413C224.396 103.913 220.696 82.1126 212.296 64.1126C210.396 59.8126 208.696 56.2126 208.596 55.9126C208.496 55.6126 207.796 54.6126 206.896 53.6126C206.096 52.6126 205.496 51.6126 205.696 51.3126C205.796 51.1126 204.796 49.6126 203.396 48.1126C201.996 46.6126 200.896 45.1126 200.896 44.7126C200.896 43.7126 199.296 42.0126 189.996 32.7126C180.396 23.1126 179.096 21.9126 177.996 21.9126C177.596 21.9126 176.096 20.9126 174.796 19.6126C173.396 18.4126 171.896 17.3126 171.396 17.2126C170.796 17.0126 169.496 16.1126 168.396 15.2126C167.296 14.3126 166.296 13.6126 166.196 13.6126C165.996 13.7126 162.396 12.2126 158.196 10.2126C153.896 8.21264 149.996 6.51264 149.396 6.31264C148.896 6.21264 144.996 5.21264 140.896 4.01264C127.696 0.412643 112.996 -0.887357 100.396 0.612643ZM127.296 60.2126C136.196 64.3126 147.096 76.4126 148.196 83.6126C148.296 84.6126 148.896 86.1126 149.396 86.9126C150.896 89.2126 151.296 126.313 149.996 134.913C148.896 141.813 145.396 150.513 142.396 153.913C140.496 156.013 136.696 159.713 134.896 161.313C134.096 162.113 130.896 163.913 127.896 165.413C121.396 168.713 109.796 169.813 101.896 167.913C96.596 166.613 84.896 159.713 84.896 157.813C84.896 157.213 87.096 154.513 89.696 151.713L94.496 146.713L100.196 149.913C105.496 152.813 106.496 153.113 112.696 152.713C121.496 152.113 121.696 152.013 126.596 147.613C133.296 141.313 133.796 139.213 133.896 113.713C133.996 101.413 133.596 90.3126 133.096 88.9126C132.596 87.5126 132.296 86.1126 132.596 85.6126C132.796 85.2126 132.596 84.9126 132.196 84.9126C131.696 84.9126 130.496 83.6126 129.596 81.9126C127.696 78.8126 119.996 73.7126 116.496 73.2126C110.996 72.5126 108.896 72.7126 104.096 74.3126C101.196 75.3126 97.396 77.6126 95.496 79.5126C93.596 81.4126 91.996 83.1126 91.896 83.2126C91.896 83.3126 91.596 84.4126 91.296 85.6126C90.896 86.9126 90.196 87.9126 89.696 87.9126C89.196 87.9126 88.996 88.3126 89.296 88.8126C89.596 89.2126 89.396 91.0126 88.996 92.7126C87.996 96.1126 89.696 103.413 92.496 107.813C94.696 111.213 99.596 115.813 100.296 115.113C100.596 114.813 100.896 115.013 100.896 115.613C100.896 116.813 100.996 116.813 113.896 117.713L124.396 118.413V126.413V134.413L115.396 134.313C104.596 134.213 98.196 132.313 90.696 127.013C85.396 123.113 78.396 114.713 79.596 113.513C79.896 113.213 79.696 112.913 79.096 112.913C78.396 112.913 77.996 112.613 78.096 112.113C78.196 111.713 77.696 110.313 76.896 108.913C75.096 105.813 74.396 88.2126 75.996 86.2126C76.596 85.5126 76.796 84.9126 76.396 84.9126C75.996 84.9126 76.196 84.2126 76.896 83.4126C77.596 82.6126 77.896 81.9126 77.496 81.9126C75.896 81.9126 81.596 73.0126 86.296 68.3126C94.796 59.8126 102.196 56.9126 113.996 57.3126C119.596 57.5126 122.996 58.3126 127.296 60.2126Z" fill="#EC4040"/>
</svg>
