<svg width="1058" height="1028" viewBox="0 0 1058 1028" fill="none" xmlns="http://www.w3.org/2000/svg">
<path d="M908.1 184.7C909 185.7 913.2 190.6 917.6 195.6C933.6 213.9 952.9 240 964.2 258.4C967.6 264 971.9 270.3 973.7 272.4C975.5 274.6 977 276.8 977 277.4C977 278 981.7 287.9 987.4 299.5C1012.9 351 1027.8 396.6 1036.5 450.1C1041.2 479.3 1042.3 494.2 1042.5 531L1042.6 565.4L1046.9 567.3C1049.3 568.3 1051.4 569 1051.6 568.7C1051.9 568.5 1052.3 557.3 1052.7 543.9C1055.3 435.3 1024.9 330.2 964.7 240C950.5 218.8 923.3 184.3 920.8 184.3C920.1 184.3 916.6 184 913 183.6C906.8 182.9 906.6 182.9 908.1 184.7Z" fill="#EC6B15"/>
<path d="M510.8 216C495.4 219.2 481.9 224.6 467.6 233C457.9 238.7 443.3 249.9 437 256.4L432.6 261H443.4H454.2L462.9 256C474.6 249.3 489.1 243.4 503 239.7C513 237.1 516.3 236.7 528 236.6C539.5 236.6 543.1 237 552.2 239.2C566 242.7 581 248.7 593.2 255.5L602.8 261H613.6C623.3 261 624.6 261.2 626.9 263.2C628.3 264.5 627.7 263.5 625.5 261.1C619.5 254.6 604.5 242.3 595.5 236.4C566.4 217.5 537 210.4 510.8 216Z" fill="#EC6B15"/>
<path d="M667.6 275.2C668 275.9 671.2 280.8 674.5 286C681.3 296.4 688.7 309.5 694.4 320.7C696.4 324.7 698.2 328 698.4 328C699.2 328 727 311.8 727 311.4C727 310.3 722 301.3 720.4 299.4C719.3 298.2 711.3 294.2 702.5 290.5C693.7 286.7 682.1 281.5 676.7 278.8C671.2 276.1 667.2 274.5 667.6 275.2Z" fill="#EC6B15"/>
<path d="M136 295.2C136 295.9 135.7 297.5 135.4 298.7L134.8 301H193.9H253L256.8 297.5L260.5 294.1L198.3 294C149.1 294 136 294.3 136 295.2Z" fill="#EC6B15"/>
<path d="M423.9 655.7C414.5 665.5 411.6 669.2 407.5 676.5C404.7 681.5 404.7 681.5 412.2 673.5C416.4 669.1 422.7 663.2 426.3 660.5C432.6 655.8 432.9 655.3 432.9 651.2C433 648.9 432.8 647 432.6 647C432.4 647 428.5 650.9 423.9 655.7Z" fill="#EC6B15"/>
<path d="M479.9 744.3C467.9 763.5 464.8 780.7 470.3 797C471.7 801.1 475.1 809.2 477.9 814.9L483 825.3V782.7C483 759.2 482.9 740 482.8 740C482.6 740 481.3 741.9 479.9 744.3Z" fill="#EC6B15"/>
<path d="M972.1 776.4C965.7 783 954.5 785.9 944 783.8L940.5 783.1L932.1 796.2C914.7 823.2 897.4 844.5 872 870.3C843.7 899.2 813.8 923.5 784.8 941C778 945.2 776.3 946.7 775.2 949.7C773.8 953.9 774.1 954.3 780.3 956.2C788.1 958.6 805.8 952.7 824 941.7C847.6 927.4 858.1 918.7 887.5 888.8C914.2 861.8 928.8 844.5 948.2 817C956.1 805.7 976.6 773 975.7 773C975.5 773 973.9 774.5 972.1 776.4Z" fill="#EC6B15"/>
<path d="M529 11.9V17H536.3C548.3 17 574.5 18.9 591.6 21C650.8 28.3 707.6 45.6 760.9 72.7L777.2 81L781.2 77.8C785 74.8 785.1 74.6 783.4 73.2C779.2 70 736.4 49.7 721 43.7C664.7 21.5 609.3 10.2 544.3 7.5L529 6.8V11.9Z" fill="#EC9615"/>
<path d="M503.5 167.1C485.6 170.3 471.1 174.9 457.2 181.9C443.7 188.7 419 206.7 389.5 231C360.9 254.5 341 269.5 323.6 280.4C318.7 283.5 315 286 315.4 286C317.9 286 347.1 272.5 362 264.5C381 254.3 396.7 244.5 427.9 223.7C458.7 203.1 475 193.7 493.1 186.1C504.7 181.2 519.8 176 522.6 176C523.6 176 524 174.6 524 170.5V165L519.3 165.1C516.6 165.1 509.6 166 503.5 167.1Z" fill="#EC9615"/>
<path d="M426.8 267.2C415.3 280.6 407.2 292.6 399 309C395.3 316.3 390 329 390 330.5C390 330.8 392.6 331 395.8 331H401.5L406.9 320.2C419.4 295 434.3 276.1 452.5 262.6C454.3 261.2 453.5 261.1 443.3 261H432.2L426.8 267.2Z" fill="#EC9615"/>
<path d="M603.6 261.8C604.1 262.2 607.8 265.2 611.7 268.4C624.4 278.5 639.3 298.6 649.8 319.7L655.4 331H661.2C664.6 331 667 330.6 667 329.9C667 327.9 659.8 311.4 655.2 303C646.8 287.5 639 276.2 629.6 266.2L624.7 261H613.7C607.6 261 603 261.4 603.6 261.8Z" fill="#EC9615"/>
<path d="M726.5 310.1C727 311.4 724 313.5 712.7 320L698.3 328.3L702.2 337.3C710.3 356.1 717.2 378.6 720.5 397.5C724.7 421.6 726.2 462.3 724 492.5C723.5 499.6 722.3 515.3 721.5 527.2C720.6 539.1 720 550 720.2 551.4C720.5 553.8 721 553.6 738.5 543.5C748.4 537.7 756.8 532.9 757.2 532.8C757.6 532.6 757.5 523.7 757 513C756.5 502.3 755.8 476.8 755.5 456.5C755.2 434.3 754.3 413.7 753.4 405C751.9 390.4 748.1 368.2 745.5 357.9C742 344.4 729.7 312.3 726.9 309.5C726.2 308.8 726.1 309.1 726.5 310.1Z" fill="#EC9615"/>
<path d="M102 519.7V720.4L105.5 717L109 713.6V516.3V319H105.5H102V519.7Z" fill="#EC9615"/>
<path d="M625 401.7C621.5 402.4 613.1 405.8 610.6 407.5C608.8 408.8 611 409 630.8 409C643.6 409 652.9 408.6 652.6 408.1C652.3 407.6 649.2 406.1 645.7 404.7C639.3 402.1 629.6 400.7 625 401.7Z" fill="#EC9615"/>
<path d="M410 405.4C399.1 410.2 388.6 416.5 388.2 418.4C387.7 420.9 390.6 420.4 400.6 416.1C405.5 413.9 411.5 411.7 413.8 411.1C417.2 410.1 418.4 409.2 420 406L422 402H419.8C418.5 402 414.1 403.5 410 405.4Z" fill="#EC9615"/>
<path d="M393 424.9C393 426.6 401.6 436 403.1 436C403.4 436 404.1 435 404.7 433.8C405.5 431.9 405 431 400.6 427.3C395.2 422.6 393 421.9 393 424.9Z" fill="#EC9615"/>
<path d="M476.5 582.3C477.6 583 482.1 585.7 486.6 588.3C491.1 590.9 495.5 593.9 496.5 594.9C498.1 596.8 498.1 597 495.8 599C494.6 600.1 488.3 604.5 482 608.7C469.5 616.9 454.3 628.4 441.3 639.3C433.3 646 433 646.4 433 650.5V654.8L446.9 645.6C469.4 630.5 482.5 625 495.7 625C505 625 510.4 626.3 520.5 631L528.6 634.7L534.7 631.6L540.9 628.5V615.6C541 604 540.8 602.8 539.3 603.4C535 605.1 528.5 606 525.2 605.4C520 604.5 512.3 600.7 506.7 596.3C504.1 594.2 499.5 590.5 496.5 588.1C490.1 583.1 485.3 581.1 479 581C475 581 474.8 581.1 476.5 582.3Z" fill="#EC9615"/>
<path d="M433.7 681.7C425.8 694.8 421.9 705.4 419.5 720.1C418.1 729.1 414.5 782.8 415.3 783.6C415.5 783.9 417.4 781.1 419.5 777.5C429.7 760.2 454.8 730.1 479.2 706C498 687.6 498 687.6 498 683.2C498 679.4 497.8 678.9 496.3 679.6C495.3 680 490.5 681.4 485.5 682.7C468.4 687.3 451.6 685.9 442.2 679C439.9 677.4 437.8 676 437.6 676C437.3 676 435.6 678.6 433.7 681.7Z" fill="#EC9615"/>
<path d="M1014 696.8C1004.8 719.2 985.9 756.4 971.2 781C945.2 824.4 923.5 852.4 887.5 888.8C858.1 918.7 847.6 927.4 824 941.7C811.7 949.1 800.9 953.8 791 955.8C783.3 957.4 783 957.4 778.1 955.3L773.1 953.2L772.1 956.3C771.5 957.9 771 961.3 771 963.6C771 967.2 771.6 968.7 774.6 972C777.9 975.7 782.8 978 787.2 978C788.2 978 792.2 975.2 796.2 971.7C800.2 968.2 808.4 962 814.5 958C904.5 897.7 973.2 810.2 1011.4 707.1C1014.6 698.7 1016.9 691.6 1016.7 691.4C1016.5 691.2 1015.3 693.6 1014 696.8Z" fill="#EC9615"/>
<path d="M391.7 710.7C382.5 738.4 381.8 758.9 388.6 794.5C393.9 821.7 399.7 841.4 407.2 857.2C410 863.1 412.5 867.8 412.7 867.6C413 867.4 412.2 865.4 411.1 863.2C406.7 854.6 402.5 833.1 399.1 802.5C395.2 767.5 393.2 724.2 394.8 709.5C395.4 704.5 395.7 700.4 395.5 700.2C395.4 700.1 393.7 704.8 391.7 710.7Z" fill="#EC9615"/>
<path d="M519.5 703.9C517.3 704.9 513 708.3 510 711.4L504.6 717H522.3H540V711C540 705.1 540 705 536.4 703.5C531.5 701.5 524.4 701.6 519.5 703.9Z" fill="#EC9615"/>
<path d="M487.7 734.8L483 739.6V782.6V825.6L492.3 842C497.3 851.1 507.6 868.5 515 880.7L528.5 903L530.8 899.2C532 897.2 534.6 892.7 536.6 889.4L540 883.2L539.8 856.4L539.5 829.5L537.2 836.5C535.9 840.3 533.6 849.7 532.2 857.3C530.7 864.9 529 871.1 528.5 871.1C528 871.1 526.3 864.7 524.8 857C521.3 839.3 518.2 830 511.8 818C493.1 782.9 492.2 780.6 491.4 762.5C491.1 755.9 491.3 746 491.8 740.5C492.3 735 492.6 730.4 492.5 730.3C492.4 730.1 490.3 732.2 487.7 734.8Z" fill="#EC9615"/>
<path d="M698.6 168.8L703.5 174.8L812.4 227.2C872.3 255.9 921.6 279.6 922 279.8C923 280.2 925.2 274.8 924.3 273.9C923.9 273.5 872.7 248.8 810.5 219C748.4 189.2 696.6 164.3 695.6 163.8C694.5 163.2 695.8 165.4 698.6 168.8Z" fill="#ECC115"/>
<path d="M533 170.4C533 174.9 533.3 176 534.6 176C537.5 176 556.6 182.8 568 187.9C585.3 195.6 598.6 203.5 632.4 225.9C666.5 248.6 684.6 259.4 706.8 270.5C719.9 277 740.2 286 741.9 286C742.2 286 736.9 282.4 730.1 278C714.7 267.9 692.4 251.2 671.5 234C624.8 195.3 603 181 579.2 173.1C567.6 169.3 552 166 541.3 165.3L533 164.7V170.4Z" fill="#ECC115"/>
<path d="M799.5 297L802.4 300H862.2C925.7 300 923.2 300.2 921.4 295.6C920.8 294.2 914.4 294 858.7 294H796.6L799.5 297Z" fill="#ECC115"/>
<path d="M949 517.1C949 704 949.1 714.8 950.8 716.2C951.7 717 953.1 718 953.8 718.4C954.7 719 955 678.9 955 519.3V319.5H952H949V517.1Z" fill="#ECC115"/>
<path d="M738.5 543.5L720.5 553.9L719.8 558.7C719.4 561.3 719.3 563.6 719.5 563.8C719.7 564 728.3 559.3 738.7 553.3L757.5 542.5L757.8 537.7C758 535.1 757.7 533 757.3 533C756.9 533 748.4 537.7 738.5 543.5Z" fill="#ECC115"/>
<path d="M543.3 601.3C541.1 602.3 541 602.8 541 615.2C541 628.2 541.4 629.3 544.8 627.2C545.7 626.5 546 623.1 545.8 613.3L545.5 600.3L543.3 601.3Z" fill="#ECC115"/>
<path d="M500.8 677.3C498.4 678.2 498 679 498 682.2C498 684.3 498.2 686 498.5 686C498.7 686 500.1 683.7 501.5 681C502.9 678.2 503.9 676 503.8 676.1C503.6 676.2 502.3 676.7 500.8 677.3Z" fill="#ECC115"/>
<path d="M553.7 677.8C555.7 683 561.2 689.5 578.9 707C603.3 731.1 627 759.5 637.1 776.5C639.5 780.6 641.6 783.8 641.7 783.6C642.3 783.1 638.9 730.5 637.9 723.6C635.6 708.5 631.5 696.2 624.9 685C618.9 674.8 619.6 675.3 616.1 678.3C614.4 679.7 610.4 681.8 607.3 683.1C596 687.4 574 685.4 558.7 678.6C554 676.6 553.2 676.4 553.7 677.8Z" fill="#ECC115"/>
<path d="M540 711.5C540 714.5 540.5 717 541 717C541.6 717 542 714.5 542 711.5C542 708.5 541.6 706 541 706C540.5 706 540 708.5 540 711.5Z" fill="#ECC115"/>
<path d="M540.8 826.3C539.6 829.2 539.9 883.8 541 881.8C541.6 880.8 541.9 869.3 541.8 852.3C541.6 837 541.2 825.3 540.8 826.3Z" fill="#ECC115"/>
<path d="M481.5 55.1C477.1 55.5 467.8 56.7 460.8 57.6L448.1 59.3L433.2 81.4C424.9 93.6 414.1 109.4 409.2 116.7L400.2 129.8L406.2 126C434.2 107.9 471.5 96.8999 513.3 94.3999L525 93.6999V110.4V127H521.6C515.5 127 500.7 130 489.5 133.5C477.9 137.1 461.3 144.8 449.5 152C431.8 162.8 403.9 186.7 391.7 201.4C387.9 206.1 388.2 205.9 395.5 199.1C416.1 180.1 439.4 163.6 461.5 152.4C481.7 142.2 498.3 137.2 520.3 134.6L525 134V154.8V175.6L510.8 180.4C485.9 188.6 466.3 199 433 221.5C395.5 246.8 374.9 259.2 349 272.1C315.1 288.9 283.5 299.4 254.6 303.5C250.1 304.1 249.7 304 250.9 302.6C252.1 301.1 247.1 301 193.2 301H134.1L133.4 303.2C133.1 304.4 130.5 307.7 127.9 310.6L123 315.7L175.6 391.4C204.5 433 228.4 466.9 228.6 466.7C228.8 466.5 231.9 449 235.5 427.9C239 406.8 245.4 372.1 249.7 350.9L257.4 312.4L271.5 311.2C306.5 308.3 329.1 301.5 375.5 279.9C383.8 276 391.1 272.6 391.9 272.3C392.6 271.9 390.6 275.7 387.3 280.6C362.9 317.1 344.1 360.9 338 395.4C334.2 417.5 333.5 426.9 333.5 459.5C333.6 484 334.1 498.1 335.9 519.5C338.8 554.5 339.1 583.7 336.7 600.3C325.7 674.5 286.3 722.3 223.6 737.6C218.1 738.9 213.4 739.7 213.1 739.4C212.8 739.1 216.8 735 222 730.2C243 711.2 250.8 701.2 263.3 677C275.9 652.7 282.7 631.9 290 596C296.1 565.4 298.5 540.4 299.4 496C299.8 477.8 299.7 475.6 299 484.5C293.8 548.1 288.4 583.8 279 618.2C270.6 648.9 262.5 669 252.6 683.9C237.1 707.3 214.1 726 187 737.4C171.5 744 150.4 749 138.2 749H134.5L134.4 756.3C134.4 760.2 133.8 764.4 133.2 765.6C132.2 767.5 134.7 768.9 181.8 791.7C209.1 804.9 231.6 815.5 231.8 815.1C231.9 814.7 228.2 802.5 223.5 787.9C218.8 773.4 215 760.9 215 760.2C215 759.5 216.4 759 218.9 759C224.7 759 244.3 755.4 254 752.6C269.8 748 289.5 738.4 309.9 725.3C314.5 722.3 318.3 720 318.5 720.2C318.6 720.4 319.3 737.8 319.9 759C320.5 780.2 321.5 803.6 322 811C323.3 829.1 326 856.5 326.9 859.8C327.5 862.1 333.2 865.2 376.5 886.2C403.4 899.3 425.5 909.8 425.7 909.6C425.9 909.4 422.6 902.8 418.2 894.9C413.9 887 407.5 875.1 404 868.5C400.5 861.9 393 848 387.2 837.7C370.7 807.8 362.4 788.9 357.4 769.2C351.6 746.4 348.6 710.3 350.1 680.4C351.7 648.5 356.3 632.2 368.9 615C378 602.5 398.1 585.9 406.1 584.3L409.3 583.7L408.6 588.5C408 593.1 399.6 619.5 393.6 635.5C392.1 639.5 391.7 641.7 392.5 640.5C403.3 626.2 420.8 609.7 435.4 599.8C445.6 593 466.2 582.7 473.2 580.8C482.7 578.3 490.6 581.6 505.5 594.1C516.9 603.7 526.5 606.7 535.8 603.6C540.9 601.9 550.1 595.7 559.7 587.5C565.1 583 572.5 580 578.5 580C586.2 580 614.3 594.2 629.5 605.9C637.5 612 654 628 660.3 635.7C663.1 639.2 665.5 641.8 665.7 641.6C665.9 641.4 664.5 637.3 662.7 632.4C657.5 618.9 649.2 593 648.4 588.1L647.7 583.7L650.6 584.4C658 586.2 673.9 598.5 683.1 609.4C695.3 623.8 701.2 636.9 704.6 657.5C707.2 672.8 707.2 721.5 704.7 740C699.5 776.8 693.1 794.3 667.9 840.4C647.9 876.8 630 910.3 630.2 910.6C630.5 910.8 729.1 863.2 729.9 862.4C730.6 861.8 733.8 831.5 734.9 814.5C736.5 792.7 737.9 753.7 738 735.3V720.1L749.8 727.4C781.2 746.9 801.3 754.7 830.6 758.5C836.4 759.3 841.4 760.1 841.6 760.3C841.8 760.5 837.9 773.1 832.9 788.4C827.9 803.7 824 816.3 824.2 816.5C824.5 816.7 835.8 811.2 905.1 777.5L924.7 767.9L923.3 762.7C922.5 759.9 922.1 755.7 922.4 753.4L922.9 749.4L912.5 748.2C862.6 742.7 817.7 712.3 796.2 669.5C794.6 666.2 791.1 657.7 788.6 650.7C771.6 603.7 763.1 555.3 758.3 478C756 440.8 755.5 445.5 756.9 490C758.7 544.1 760.6 565.3 766.1 593.5C773.9 633 783.2 660.1 798 686C807.8 703.1 814.5 711.4 829.7 725.7C837.6 733.1 843.1 739 842.2 739C839.4 739 828.1 736.1 819.5 733.4C810.5 730.4 794.3 722.7 787.2 717.9C753.1 694.7 730.8 657.2 721.7 607.5C719.8 596.9 719.5 592.1 719.5 566.5C719.5 545.7 720.1 531.4 721.5 516C724.2 486.5 724.3 428.7 721.7 410C715.5 366.2 698.1 322.3 670.7 281.6C667.4 276.7 665.4 272.9 666.1 273.3C666.9 273.6 675.8 277.7 686 282.3C730.8 302.7 755.3 309.8 787.6 311.7C798.1 312.3 799.1 312.5 799.5 314.4C804.7 336.1 828 462.7 828 469.2C828 469.7 828.4 470 828.9 469.8C829.8 469.5 933 321.6 935.2 317.6C936 316.1 936 315.5 935.1 315.2C932.6 314.4 927.8 309.6 925.4 305.4L922.8 301H863.2C826 301 804.1 301.4 805 302C807.8 303.7 805.4 303.7 794.5 301.9C764.4 296.8 729.1 283.8 694.5 265.2C675.3 254.9 657.3 243.8 629.6 225.2C589.9 198.5 569.6 187.7 543.8 179.5L532 175.7V155.2V134.7L540 135.4C549.7 136.2 567.6 140.7 578.6 145C605.2 155.6 634.2 174.8 663 200.9L672.5 209.5L667 203C659 193.5 643.1 178.1 632.6 169.6C602.4 145.2 569.6 130.1 540.5 127.3L532.5 126.5V110.5V94.4999L542 94.7999C581.4 95.9999 622 107.8 650.9 126.4L658.3 131.1L651.8 121.8C648.2 116.7 637.2 100.5 627.2 85.9L609.1 59.3L604.8 58.7C588.4 56.6 564.9 54 561.8 54C558.2 54 558 54.1 558 57.3C558 67.8 548.5 80 537.6 83.4C520.2 88.9 501.4 76.8 499.3 58.9L498.7 54L494.1 54.1C491.6 54.2 485.9 54.6 481.5 55.1ZM552.7 216.4C579.7 223.8 601.5 236.6 622.5 257.5C639.4 274.2 652.8 293.7 662.1 315C663.9 319.1 667.3 324.7 669.6 327.5C683.3 344 692.3 363.3 696.4 384.9C698.8 397.7 698.3 422.7 695.4 432.2C695 433.7 695.5 434 698.4 434C701.8 434 701.9 434.1 702.6 438.7C703.7 446.2 702.3 462.7 699.5 473.5C698.1 479.3 695 487.7 692.1 493.5C686.7 504.4 663.6 543.3 649.2 565.8C638.4 582.5 635 588.9 633.6 595.3L632.4 600.1L627.1 595.5C620 589.5 614.8 585.9 607.5 582.2C604.2 580.6 600.4 578.4 599.1 577.3L596.7 575.4L599.9 571C604.3 564.9 604.2 559.6 599.4 550.1C592.7 536.7 581 527 571.6 527C567.8 527 557.3 525.6 552.3 524.5C550.1 524 550 524.2 550 531.2C550 539.4 551.7 551 553 552.4C553.5 552.9 557.5 551.3 562.4 548.6C571.9 543.5 575.6 543 580.5 546C584.3 548.3 590 556.6 590 559.8C590 564.6 579.9 572 573.4 572C571.8 572 567.7 571.4 564.3 570.7L558.1 569.4L556.5 573.7C553.2 582.2 536.6 595 528.7 595C520.2 595 504 582.9 500.6 573.9L498.9 569.4L492.7 570.7C489.3 571.4 485.2 572 483.7 572C477.1 572 467 564.9 467 560.1C467 556.5 472.3 548.6 476.4 546C481.4 543 485.4 543.4 492.9 547.9C502.6 553.6 503.5 553.7 505 549.8C505.7 547.9 506.4 538.7 506.7 528.1L507.3 509.7L503.9 510.3C502 510.7 498.6 511.2 496.3 511.6L492 512.3V519.6V527H487.3C476.9 527 465.5 535.7 458.5 549C456.5 553 454.7 558 454.4 560.7C453.9 565.5 454.2 566.3 459.1 573.1C461.1 575.8 459.6 577.4 450.5 582C445.7 584.5 438 589.5 433.4 593.3C428.7 597 424.8 600 424.6 600C424.4 600 423.9 598.3 423.5 596.3C422.5 590.9 418.1 582.7 405.7 563C389.2 536.9 369.5 503.7 364.4 493.5C357.6 479.6 354.9 468.3 354.4 451C354.1 443 354.3 436 354.7 435.3C355.3 434.4 383.1 431 389.6 431C391.1 431 389.9 421.6 388.2 420.4C386.7 419.3 386.9 418.3 388.9 415C389.9 413.4 392 398.8 391.3 398.1C390.7 397.3 377.9 404 369.1 409.7C364.5 412.7 360.6 414.9 360.3 414.7C359.4 413.7 388.1 331.3 394.6 316.4C415.3 269.2 451.9 234 495.4 219.5C516.6 212.4 534.4 211.4 552.7 216.4Z" fill="#151540"/>
<path d="M575 399.7C570.9 401.1 569.6 407.5 572.8 410.3C576.9 414 583.3 411.4 583.3 406.1C583.3 401.5 579.1 398.3 575 399.7Z" fill="#151540"/>
<path d="M418.1 411.1C408.5 413 394 418.9 394 421C394 421.6 394.4 422 394.8 422C395.2 422 398.3 424.3 401.5 427C404.8 429.8 409.9 433.2 412.7 434.7C417.2 436.9 419 437.2 425.2 436.8C434.1 436.4 440 433.7 447.3 427L452.5 422.2L446 418.1C439.5 414 428.7 409.9 424.6 410.1C423.5 410.2 420.5 410.6 418.1 411.1Z" fill="#151540"/>
<path d="M621 413.3C613.5 416.4 605.9 421.7 606.6 423.4C607.4 425.4 614.3 430.7 619.9 433.6C631 439.4 642.3 437.4 654.3 427.5C657.9 424.5 661.4 422 662 422C666.6 422 654.8 415.8 644.1 412.6C636.3 410.3 627.7 410.6 621 413.3Z" fill="#151540"/>
<path d="M480.5 415.4C479.2 417.3 479.1 418.3 479.9 419.9C482.4 424.4 489 423.2 489 418.2C489 412.8 483.4 411 480.5 415.4Z" fill="#151540"/>
<path d="M420.5 65C354.8 80.5 292.5 109.5 240.2 149C201 178.5 164.2 216.6 135.1 257.7C127.9 267.9 127.9 267.9 129.6 270.5C130.5 271.9 131.8 272.9 132.4 272.6C133 272.4 185.3 247.3 248.5 217L363.5 161.8L370.3 155.1C376.6 149 386.5 135 433.2 66.2C436.7 61.1 437.1 61.1 420.5 65Z" fill="#151540"/>
<path d="M622 62.7C622 63 635.2 82.6 651.4 106.4C672.5 137.3 682.6 151.2 687.2 155.7C693.5 161.8 694.2 162.1 809.4 217.4C918.8 269.9 925.4 272.9 927.2 271.3C928.2 270.4 929 269.3 929 268.8C929 267.4 914 246.6 903.6 233.6C834.9 147.7 738.1 87.6 630.7 64.1C625.9 63.1 622 62.4 622 62.7Z" fill="#151540"/>
<path d="M710.7 184.6C714 188.9 721.8 200.1 728 209.5C747.6 239 765.6 262 785.1 282.4L795.2 293H858H920.8L921.2 287.2C921.4 284.1 921.4 281.2 921.1 280.8C920.6 280.3 710.9 179.2 706.1 177.2C705.3 176.9 707.3 180.2 710.7 184.6Z" fill="#151540"/>
<path d="M243 229.4C184.4 257.5 136.4 280.9 136.3 281.3C136.1 281.7 136 284.5 136 287.5V293H198.8H261.6L271.6 282.2C293.4 258.9 304.4 244.8 326.1 212.8C334.5 200.5 343.3 187.9 345.7 184.7C348.2 181.5 350.1 178.7 349.9 178.6C349.7 178.4 301.6 201.3 243 229.4Z" fill="#151540"/>
<path d="M94.0999 328C44.7999 434.1 34.6999 549.7 64.9999 660.1C72.8999 689 88.3999 729.9 91.0999 729.1C91.8999 728.9 94.3999 728 96.7999 727.2L101 725.8V522.4C101 351.9 100.8 319 99.5999 319C98.8999 319 96.3999 323.1 94.0999 328Z" fill="#151540"/>
<path d="M956 522.3V725.8L960.3 727.2C962.6 728 965.2 729 966.1 729.4C967.2 729.9 967.9 729.5 968.3 728.3C968.6 727.3 971.1 721.1 973.8 714.5C990.8 673.2 1001.2 631.7 1007.2 580.5C1009.3 562.9 1008.9 500.3 1006.6 481.5C1000.1 427.2 986.6 378.8 964.7 331C955.1 310.2 956 290.9 956 522.3Z" fill="#151540"/>
<path d="M109 517V714.5L119.1 704.5C146.8 677 169.8 646.2 185.1 616.1C197.9 591 210.9 552 220.1 510.7L223.3 496.5L168.5 411.5C138.4 364.7 112.7 324.9 111.4 323L109 319.5V517Z" fill="#151540"/>
<path d="M891.1 411.7L834.8 499.3L836.5 507.9C842 534.5 855.5 578.5 864.9 600.5C879.8 635.2 905.1 671 936.9 702.5L948 713.5V518.7C948 411.6 947.9 324 947.8 324.1C947.6 324.1 922.1 363.5 891.1 411.7Z" fill="#151540"/>
<path d="M300.3 461C300.3 463.5 300.5 464.5 300.7 463.2C300.9 462 300.9 460 300.7 458.7C300.5 457.5 300.3 458.5 300.3 461Z" fill="#151540"/>
<path d="M487.4 626.5C476.7 628.8 466.2 634 449.5 645.1C417.6 666.2 403.9 680.3 397.8 697.9C395.6 704.1 395.5 705.9 395.6 730.5C395.7 772.4 401.3 828.3 407.5 849.5C408.9 854.5 408.9 854.5 408.4 844.5C407.7 831.6 409.5 807.1 412 795C413.3 788.8 414.5 776.4 415.5 759C417.7 719.9 419.7 708.5 427 692.3C436.8 670.8 457.2 650.1 475.8 642.9C483.5 639.9 498.8 639.2 508.3 641.4C515 643 526.3 648 527.5 650C528 650.8 528.7 650.7 529.8 649.7C536.2 644.1 550.3 640 563.5 640C579.5 640.1 591 645.5 606.8 660.5C625.2 678 635.4 698.4 638.9 724.7C639.5 729 640.6 744.7 641.5 759.7C642.5 779.5 643.5 789.7 645.2 797.2C647.1 806.3 647.4 810.5 647.4 832.7C647.5 847.2 647.9 856.9 648.3 855.7C650 851.3 654 830.2 655.9 815.5C659.8 785.8 661.4 762.4 661.4 732C661.5 702.6 661.5 702.5 659 696.5C651.6 679 637.5 665 606.5 644.3C579.1 626.1 563.5 622.1 544.6 628.5C540.2 629.9 534.8 632.2 532.6 633.5L528.7 635.9L522 632.5C509.7 626.3 497.7 624.2 487.4 626.5Z" fill="#151540"/>
<path d="M504 678.2C504 681.5 495.3 691.7 479.7 707C458.9 727.2 436.4 753.5 424.1 771.8C420.1 777.7 419.8 778.8 418.7 788.2C417.3 801.2 418.9 816.9 422.3 824.4C425.1 830.4 434 842.5 444.1 854.2C454.6 866.2 490 901.9 500.7 911.2C510 919.3 512.7 923.2 511.5 927C510.3 930.7 505.1 931.9 479.8 934.1C466.4 935.2 454.5 936.4 453.2 936.6L450.9 937.1L453.1 940.8C454.4 942.8 459.9 951.5 465.4 960C470.9 968.5 475.5 975.6 475.6 975.8C475.6 975.9 482.9 973.5 491.6 970.4C522.7 959.5 525.1 958.8 530.5 959.3C533.3 959.6 544.7 963.1 556 967.2C567.3 971.3 577.6 974.9 579 975.2C581.3 975.8 582.4 974.5 593.8 956.7C604.1 940.4 605.7 937.4 604.3 936.9C603.3 936.5 591.3 935.3 577.5 934.1C549 931.6 545.7 930.7 545.2 925.2C544.9 922.2 545.6 921.2 552.7 914.7C557 910.8 570.7 897.4 583.1 885C613.2 854.9 629.9 835.2 635 823.7C638 816.8 639.5 800.6 638.2 788.3C637.2 778.8 636.9 777.7 632.9 771.8C621.9 755.3 601 730.8 580.9 710.9C561.8 691.8 553 681.5 553 678.2C553 677.4 552.7 677 552.3 677.2C551.8 677.3 548.4 679.1 544.5 681C538.1 684.2 536.8 684.5 528.5 684.5C520.2 684.5 518.9 684.2 512.5 681C508.7 679.1 505.2 677.3 504.8 677.2C504.3 677 504 677.4 504 678.2ZM538.5 703.5C540.7 704.6 546.5 709.6 551.5 714.9C556.5 720.1 563.9 727.9 568.1 732.2C576.3 740.7 582.7 750.9 586.8 762.2C589.1 768.4 589.5 771.1 589.5 780.5C589.5 794.1 588.2 798.4 576.5 821.8C566.7 841.5 529.1 904.6 527.9 903.3C527.5 902.9 518.9 888.7 508.8 871.9C488 837.3 474.6 811.8 469.9 797.9C467 789.2 466.8 787.7 467.2 778.5C468.1 760.9 475.1 746.7 491.6 729.1C509.9 709.5 515.6 704.3 520.2 702.6C525.6 700.7 533.2 701 538.5 703.5Z" fill="#151540"/>
<path d="M125.4 777.1C124.4 778.3 122.3 779.8 120.8 780.6C119.2 781.4 118 782.4 118 782.9C118 784.7 138 813.9 148.2 827C175.1 861.6 192.8 878.2 221.9 895.8C234.1 903.2 254.6 914.2 264.2 918.4L270 921L267.9 915.7C263.8 905.7 253.3 876.3 245.1 852.4L236.8 828.2L182.7 801.9C152.9 787.5 128.2 775.5 127.9 775.4C127.5 775.2 126.4 776 125.4 777.1Z" fill="#151540"/>
<path d="M875 801.6L820.5 828.1L810.5 857.3C798 894 788.2 920.2 786.6 921.5C786 922 784.5 925 783.3 928C782.2 931 780.3 935.9 779.1 938.7C778 941.6 777.4 944 777.8 944C779.4 944 803.5 927.8 816.5 918C861.3 884.4 897.4 846 929.2 798.6L939.9 782.6L936.7 780.7C934.9 779.6 932.6 778 931.5 777C929.5 775.2 928.1 775.8 875 801.6Z" fill="#151540"/>
<path d="M329.4 877.6C330.5 886 334.9 901.8 338 908.6C356.9 950.4 413.5 986 460.9 986C467 986 472 985.7 472 985.4C472 985.1 468.9 980.5 465.1 975.2C457.7 964.7 445.9 945.4 439.1 932.4L434.8 924.3L403.7 909.3C386.5 901 362.7 889.4 350.6 883.6L328.7 873L329.4 877.6Z" fill="#151540"/>
<path d="M674.7 898.8L621.9 924.5L617.1 933.5C608.1 950.7 594.8 971.9 586.8 982.2L583.8 986H595.5C628.5 986 665.5 969.9 692.9 943.5C710.1 927 719.6 911.6 724.5 892.4C726.9 882.5 728.6 872.9 727.9 873.1C727.7 873.1 703.7 884.7 674.7 898.8Z" fill="#151540"/>
<path d="M726.5 308.5C741 335.9 750.7 371.2 753.9 409C754.5 415.9 755.5 426.4 756 432.5C756.6 438.5 757.9 458.1 759 476C762.7 535.7 767.4 571.5 776.1 606.5C789.3 659.3 800.9 683.2 824.4 705.8C849.5 729.9 882.6 745.2 915.1 747.7L922.8 748.3L924.7 743.8C927.2 738.2 931.8 732.9 936.4 730.5L939.9 728.6L931.9 726.3C897.6 716.4 863.7 684.7 839.7 640C831.6 624.8 826.7 611.9 819.5 586.6C806.5 541 799.2 501.8 793 445.5C788.1 400.8 780.8 363.2 769.4 324.4C767.4 317.8 765.5 311.8 765.2 311.3C764.8 310.7 759.1 309 752.5 307.5C745.9 306 736.2 303.4 730.9 301.7L721.2 298.5L726.5 308.5Z" fill="#ECC140"/>
<path d="M693.4 412.5C695.5 414.1 696.6 413.8 695.5 412.1C695.2 411.5 694.1 411 693.2 411C691.7 411.1 691.7 411.2 693.4 412.5Z" fill="#ECC140"/>
<path d="M654.9 541.7L635.3 561.5L633.1 571C631.9 576.2 630.7 581.3 630.5 582.3C630.1 584.6 631.8 591 632.9 591C633.4 591 634.3 589.7 634.8 588.2C635.8 585.1 636.3 584.4 657.2 551C673.5 524.9 675.3 522 674.8 522C674.6 522 665.6 530.9 654.9 541.7Z" fill="#ECC140"/>
<path d="M739 553.1C728.8 559.1 720.1 564.1 719.5 564.3C718.1 564.8 720.6 596.8 723.1 609.7C725.7 623.4 729 635.2 733.5 647.1C747.9 684.8 776 715 809.6 728.8C816.2 731.5 816.8 731.6 818.7 730.1C819.8 729.2 822.2 727.7 824 726.7L827.3 724.9L820.4 718.2C800.4 698.5 779.9 657.1 770.5 617.3C764.2 591.2 759 559.3 759 547.5C759 545.1 758.7 542.9 758.3 542.7C757.8 542.5 749.2 547.2 739 553.1Z" fill="#ECC140"/>
<path d="M569.5 582.6C567.2 583.4 561.4 587.4 556.5 591.5C551.5 595.6 547.2 599 546.8 599C546.3 599 546 605.3 546 612.9V626.8L549.8 625.9C557.3 624.2 568.7 624.8 576.6 627.5C592.7 632.9 624.9 654.1 641.8 670.4C648.3 676.7 648.8 674.5 642.6 666.3C630.9 650.8 588.3 615.4 566.2 602.8C563.3 601.1 560.5 599 560 598C558.8 595.7 561.1 593.7 572.5 587C577.5 584.1 581.7 581.6 581.9 581.4C583 580.4 573 581.3 569.5 582.6Z" fill="#ECC140"/>
<path d="M463.8 685.7C465 685.9 466.8 685.9 467.8 685.7C468.7 685.4 467.7 685.2 465.5 685.3C463.3 685.3 462.5 685.5 463.8 685.7Z" fill="#ECC140"/>
<path d="M542 712V717H547.2H552.4L547.5 712C544.8 709.2 542.4 707 542.3 707C542.1 707 542 709.2 542 712Z" fill="#ECC140"/>
<path d="M564.7 733.5C565.1 735.7 565.4 745.4 565.4 755C565.4 779.1 564.2 783.2 547.5 813.6L542 823.7L542.2 851.6L542.5 879.5L554 860.5C572.1 830.4 585 804.4 588 792.1C592.2 774.6 584.7 751 570.2 736L563.9 729.5L564.7 733.5Z" fill="#ECC140"/>
<path d="M521.5 38.4C517.2 40.2 512.3 46.2 511 51.1C507.1 65.6 523.2 78 537 71C544.1 67.4 548.1 58.7 546.1 51.2C544.7 46.1 539.7 40.2 535.3 38.4C531.2 36.7 525.4 36.7 521.5 38.4Z" fill="#15156B"/>
<path d="M97.4999 274.4C89.5999 279.1 86.2999 290.7 90.5999 298.1C99.5999 313.5 121.8 309.7 124.6 292.4C126.9 277.8 110.3 266.8 97.4999 274.4Z" fill="#15156B"/>
<path d="M943.5 273.4C939.3 275.2 934.3 281.2 933 286C930.8 294.1 935.9 303.3 944.5 306.6C958.8 312 973.1 295.9 966.1 282.2C963.8 277.6 961.5 275.5 956.7 273.5C952.3 271.7 947.5 271.6 943.5 273.4Z" fill="#15156B"/>
<path d="M671.5 339.3C674.4 347.6 679.3 361.5 682.3 370C690.7 393.6 697.2 413.9 696.8 415.1C696.6 415.6 694.4 414.7 692 412.9C687.2 409.4 674.9 402 673.9 402C673.6 402 673 406 672.7 410.9C672.3 415.7 671.5 422 670.9 424.9C670.3 427.8 670.1 430.4 670.5 430.8C670.8 431.2 676.5 431.9 683.1 432.5C693.5 433.4 695.1 433.4 695.5 432C696.9 427.1 698 415.9 698 405.2C698 385.2 693.6 367.4 684.1 349.5C679.8 341.3 669.3 325.9 667 324.5C666.6 324.2 668.6 330.9 671.5 339.3Z" fill="#15156B"/>
<path d="M578.9 392C565.1 393.3 559.4 396.7 555.1 405.9C552.7 410.8 552.7 411 554.4 415.4C558.1 425 570.2 432 580.7 430.4C585.1 429.8 586.2 429 593.2 421.6C599.6 414.9 601 412.8 601.6 409.2C602.3 404.6 600.8 396.9 598.4 393.2C596.8 390.8 593.9 390.6 578.9 392ZM581.9 401.6C584 403.5 583.7 409 581.5 410.6C577.2 413.8 571 411.1 571 406C571 399.9 577.4 397.3 581.9 401.6Z" fill="#15156B"/>
<path d="M410.5 392.8C408.9 393 404.1 394 399.8 395.1C391.2 397.4 391.4 397.2 390.4 408.2L389.7 415L400.1 409.3C405.8 406.2 410.6 403.5 410.8 403.4C411.2 403.2 414 392.6 413.7 392.5C413.6 392.5 412.2 392.6 410.5 392.8Z" fill="#15156B"/>
<path d="M480.2 399C475.2 400.1 469.5 404.4 467.6 408.5C465.7 412.5 463.8 423.2 465.2 422.4C465.6 422.1 466 422.5 466 423.3C466 424.9 476.1 435.1 478.7 436.2C484.7 438.5 494.6 435.6 499.3 430.1C501.8 427.1 504 421.4 504 418C504 411.9 498.6 403.4 493.1 400.6C489.6 398.8 484.2 398.2 480.2 399ZM487.8 414.2C488.5 414.9 489 416.6 489 418.2C489 423.2 482.4 424.4 479.9 419.9C477.6 415.6 484.3 410.7 487.8 414.2Z" fill="#15156B"/>
<path d="M391.7 420.8C390.2 421.1 390 422 390.2 425.8C390.5 429.9 390.8 430.5 392.9 430.8C395.1 431.2 395.2 431.1 393.6 428.9C391.7 426.1 391.5 422.3 393.3 421.7C395.1 421.1 393.8 420.3 391.7 420.8Z" fill="#15156B"/>
<path d="M499.4 490.7L493.3 492.1L492.7 501.8C492.4 507.1 492.3 511.6 492.5 511.8C492.7 512 496 511.7 499.9 511L507 509.8V499.4C507 493.7 506.7 489.1 506.3 489.1C505.8 489.2 502.8 489.9 499.4 490.7Z" fill="#15156B"/>
<path d="M550 510.9C550 525.5 549.4 524.5 558.9 525.6L565 526.3V513.6C565 501.4 564.9 501 562.8 500.5C556.4 499.1 551.4 498 550.8 498C550.3 498 550 503.8 550 510.9Z" fill="#15156B"/>
<path d="M99.8 738C89.8 741 84.1 753.4 88.6 762.3C93.9 772.8 104.7 776.3 114.2 770.7C126.6 763.4 125.7 744.9 112.6 738.9C108.3 736.9 104.2 736.6 99.8 738Z" fill="#15156B"/>
<path d="M947.5 737.9C939.8 739.8 935.1 745.2 934.3 753.2C932.5 770.9 954 780.5 965.3 767.1C976.6 753.6 964.6 733.9 947.5 737.9Z" fill="#15156B"/>
<path d="M319.3 753C319.3 756.6 319.5 758 319.7 756.2C319.9 754.5 319.9 751.5 319.7 749.7C319.5 748 319.3 749.4 319.3 753Z" fill="#15156B"/>
<path d="M320.2 785C320.2 786.9 320.4 787.7 320.7 786.7C320.9 785.8 320.9 784.2 320.7 783.2C320.4 782.3 320.2 783.1 320.2 785Z" fill="#15156B"/>
<path d="M408.4 835.5C408.4 841 408.5 843.1 408.7 840.2C408.9 837.3 408.9 832.8 408.7 830.2C408.5 827.6 408.4 830 408.4 835.5Z" fill="#15156B"/>
<path d="M467 879.3C467 879.4 470.5 882.9 474.8 887L482.5 894.5L475 886.7C468.1 879.6 467 878.5 467 879.3Z" fill="#15156B"/>
<path d="M582 886.5C579.6 889 577.8 891 578.1 891C578.4 891 580.6 889 583 886.5C585.4 884 587.2 882 586.9 882C586.6 882 584.4 884 582 886.5Z" fill="#15156B"/>
<path d="M380.5 278.6C367.3 284.9 339.1 297 337.4 297C336.6 297 336.1 297.3 336.2 297.7C336.3 298.2 333 305.3 328.9 313.6C316.5 338.3 308.7 365.5 304.6 398.5C302.6 414.2 301.1 435.5 301.7 440.1C302.2 443.8 302.2 443.8 306.3 443.3C315.1 442.4 324.6 440.9 328.2 439.9C332.6 438.8 332.6 438.6 333.5 425C334.7 405 338.9 383 345.1 364C353.7 337.7 369.3 305.9 385.2 282.2C388 278.1 390 274.7 389.8 274.6C389.7 274.4 385.5 276.2 380.5 278.6Z" fill="#96406B"/>
<path d="M120.5 315.9C120 316.4 117.4 317.4 114.8 318.2L110.1 319.5L166.1 406.5C196.9 454.4 222.5 493.8 222.9 494.2C223.3 494.6 224.7 489.2 226.1 482L228.7 469.1L176.6 394.3C147.9 353.1 123.8 318.4 123 317.2C122 315.7 121.2 315.2 120.5 315.9Z" fill="#EC406B"/>
<path d="M781.5 748.2C781.3 749.5 778.8 764.2 776 781C773.2 797.8 769.5 819.2 767.7 828.5L764.5 845.5L783.6 836.1L802.8 826.7L806.5 813.1C810.4 799 819 761.7 819 758.9C819 757.7 817.7 757 814.3 756.5C809.4 755.8 792.4 750.5 785.8 747.6C782.1 746 782 746 781.5 748.2Z" fill="#EC406B"/>
<path d="M690.5 947.7C676.6 960.1 650.8 975 633.5 980.6L625 983.4V993.6V1003.8L620 1004.9C617.2 1005.5 614.2 1006 613.5 1006C612.6 1006 612 1007 612 1008.6C612 1011.1 612.2 1011.2 616.3 1010.6C618.7 1010.2 624.9 1008.9 630.1 1007.7C637.9 1005.8 639.6 1005.1 639.8 1003.4C640 1001.7 642.7 1000.6 656.8 996.6C666 993.9 674.2 991.7 675.1 991.6C675.9 991.5 677.9 990.9 679.6 990.2L682.5 989L682.2 981.2L681.9 973.4L692.2 965.3C697.9 960.8 703.6 955.9 705 954.4C706.4 952.8 705 953.7 702 956.3L696.5 961L696 952.1L695.5 943.2L690.5 947.7Z" fill="#EC1596"/>
<path d="M365 955.5V964.2L361.3 961.4C359.3 959.9 358 959.2 358.4 959.8C358.8 960.4 362.7 963.7 367.1 967.1L375.1 973.4L374.8 981.2L374.5 989L377.4 990.2C379.1 990.9 381.1 991.5 381.9 991.5C382.8 991.6 388 993.1 393.5 994.8C402.8 997.7 430.6 1005 432.2 1005C432.7 1005 433 1003.9 433 1002.5C433 1001.1 433.5 1000 434 1000C434.6 1000 435 996.7 435 992.2V984.3L425.2 981.1C407.9 975.5 383.9 962.5 372 952.4C364.4 946 365 945.7 365 955.5Z" fill="#EC1596"/>
<path d="M439.7 1008C440.5 1010.8 440.7 1010.9 452.7 1012.5C466.7 1014.4 469 1014.4 469 1012.5C469 1011.7 468.6 1011 468.2 1011C467.7 1011 461.3 1009.9 453.9 1008.5C437.8 1005.5 439.1 1005.6 439.7 1008Z" fill="#EC1596"/>
<path d="M780.3 847.1C760 856.9 762 855 759.1 868.1C756.4 880.3 748.5 898.5 739.8 912.8C729.2 930.2 710.4 950.9 692.4 965.1L682 973.3V980.7C682 987.9 682.1 988.1 684.3 987.5C688.5 986.2 707 974.7 717.8 966.6C731.2 956.5 748.3 939.6 758.1 926.4C769.7 911 785 879.4 794.9 850.6C797.2 844.1 798.9 838.6 798.8 838.5C798.6 838.4 790.3 842.3 780.3 847.1Z" fill="#EC4096"/>
<path d="M259 840C259 840.4 260.8 846 263 852.4C268.3 867.7 278 890.4 284 901.1C286.6 905.9 289 910.8 289.3 912.1C290.4 916.4 306.2 936.3 317.5 947.5C323.5 953.6 333.3 962.2 339.1 966.5C350 974.7 368.7 986.3 372.8 987.5C374.9 988.1 375 987.9 375 980.7V973.3L366.8 966.8C348.5 952.6 331.3 934.1 319.7 916.5C309.3 900.7 302.8 886.1 298 867.6C296.4 861.7 295 856.6 294.8 856.5C292.6 854.6 259 839 259 840Z" fill="#EC4096"/>
<path d="M381.5 991.7C384.6 994.9 414.4 1005 432.1 1008.9C440.7 1010.7 440.7 1010.7 440.2 1008.8C440 1007.7 439.2 1006.7 438.6 1006.5C438 1006.3 430.5 1004.5 422 1002.5C409 999.4 389.5 993.9 382.3 991.4C381.1 990.9 380.8 991 381.5 991.7Z" fill="#EC4096"/>
<path d="M603 1008.7C590.1 1010.5 565.7 1013 559.2 1013.1C554.3 1013.1 553.8 1013.3 556 1014.2C560.7 1016.1 608.9 1013.4 611.3 1011C611.8 1010.6 612 1009.6 611.8 1008.8C611.6 1007.7 610.2 1007.6 603 1008.7Z" fill="#EC4096"/>
<path d="M326.5 440.6C323.8 441.4 317.2 442.5 311.9 443.1L302.2 444.3L301.6 449.4C301.3 452.2 301 461.2 301 469.5C301 504 298.3 549.7 294.9 573.5C289.2 613.5 279 648.3 264.4 677C253.5 698.6 247.5 706.8 230.6 723.3L215.5 738.2L220 737.5C226.8 736.5 246.8 729.6 255.1 725.4C273.9 716 292.4 700 304.9 682.4C311.9 672.6 322.5 651.6 326.4 639.9C337.8 605.8 339.9 576.3 335.1 516.5C333.8 501.1 332.5 477.4 332.1 463.9L331.5 439.4L326.5 440.6Z" fill="#406B96"/>
<path d="M243.6 564C240.9 575 238.9 584.2 239.1 584.4C240.8 586.1 280.2 608.1 280.7 607.6C282.1 606.3 289.8 567.4 288.8 566.5C287.9 565.5 250 544 249.3 544C248.9 544 246.3 553 243.6 564Z" fill="#406B96"/>
<path d="M460.1 440.5C457.7 441.9 452.3 445.8 448.1 449.2C437.6 457.6 431.2 460.5 423 460.4C417.1 460.4 414.1 459.5 392.1 450.7C378.6 445.3 367.3 441.1 366.8 441.2C366.1 441.5 378.3 466.2 403.3 515.3C411.7 531.9 419.5 550.8 423.6 565C426.8 575.8 427.4 587.5 425.1 592.6C424.3 594.3 424 596.5 424.3 597.4C424.9 598.9 425.9 598.4 430.7 594.2C433.9 591.5 437.9 588.4 439.6 587.2C442.6 585.2 442.8 584.6 443.4 576.3C444.3 565.6 447.4 549.2 449.9 541.8C452.9 533.2 455.7 528.3 465 515.5C480 494.9 481 491.7 481 464.6V446.3L476.5 442.1C471.1 437.1 466.8 436.7 460.1 440.5Z" fill="#C1C196"/>
<path d="M609.6 439.9C611.7 442 622.9 446.9 628 447.9C635.1 449.3 639.8 448.2 646.6 443.5C649.6 441.4 652 439.6 652 439.4C652 439.2 642.2 439 630.3 439C616.8 439 609 439.4 609.6 439.9Z" fill="#C1C196"/>
<path d="M781.7 78.3L777.9 81.5L787.2 86.9C823.5 108 858.9 135.2 891 166.7L906.5 182L913.5 182.9C917.3 183.5 920.6 183.7 920.8 183.5C921 183.3 913.4 175.2 904 165.6C878.2 139.3 854.8 119.5 826 99.6C812.6 90.3 787.8 75 786.3 75C785.9 75 783.8 76.5 781.7 78.3Z" fill="#15EC96"/>
<path d="M192 678.1C184.5 687.6 168 703.4 158.6 709.8C148.7 716.7 135.5 723.3 125.8 726.1L118.2 728.3L121.9 731C126.8 734.6 130.1 738.6 132.5 743.9L134.4 748.3L143.5 747.7C159 746.6 180.5 740.4 196.7 732.2C208 726.5 223.7 715.1 233 705.9C238.1 700.9 242 696.7 241.9 696.6C241.3 696 197.9 671 197.7 671.1C197.6 671.1 195 674.3 192 678.1Z" fill="#1596C1"/>
<path d="M94.4999 791.2C106.8 809.3 124 832.1 137 847.5C142.5 854.1 152.6 866.2 159.3 874.5C182 902.3 200.4 919.7 223.4 935.1C243.1 948.4 261.1 956 272.4 956C276.8 956 283 953.8 283 952.2C283 951.8 280.4 945 277.3 937.1L271.5 922.6L260.1 917.3C237.3 906.5 211.7 891.1 195.4 878.4C175.6 863 149.2 832.1 126.4 797.6C117.7 784.3 116.5 782.9 114.4 783.4C104.8 785.9 95.9999 784.5 88.5999 779.5C85.0999 777.1 85.5999 778 94.4999 791.2Z" fill="#1596C1"/>
<path d="M374.6 433.1C364.3 434.1 355.5 435.1 355.2 435.4C355 435.7 354.7 440.8 354.7 446.7C354.7 465 359 481.8 367.6 497.9C373.7 509.1 396.9 547.7 408.3 565.5C413.3 573.2 418.8 582.6 420.6 586.4L424 593.4L425.6 589.4C427 586.2 427 584.5 426.1 579C422.7 558.4 415.8 541.5 387.8 486C375.2 461 365.3 440.4 365.8 440.2C366.3 440.1 377.4 444.3 390.6 449.5C426.7 464 428.6 463.9 453.4 444.6C457.1 441.6 462.2 438.6 464.6 438C470.4 436.4 469.3 435 462.2 435C457.3 435 455.5 435.6 448 439.9C437.3 446.1 431 448.2 423.8 448.3C419.1 448.3 417.2 447.8 412.6 445C409.5 443.1 404.6 439.2 401.6 436.3C398.6 433.4 395.6 431.1 394.8 431.1C394.1 431.2 385 432.1 374.6 433.1Z" fill="#15C1C1"/>
<path d="M509.3 239.1C483.9 244.4 455.3 258.8 439.8 274.2C422.2 291.5 404.4 322 396.4 348.5C394.1 356.2 393.7 359.4 393.6 370.5C393.5 380.2 393.9 384.9 395.2 389.1L397 394.7L402.7 393.4C412.7 391 449.8 389.5 469.8 390.8C490.1 392.1 495.7 394 500.2 400.8C507 411.1 508 421 508 483.5C508 528.4 507.3 546.3 505.4 552.2C504.6 554.8 501.5 554 492.8 548.9C483.3 543.3 480.1 543.5 473.8 550C466.2 557.9 466.3 561.8 474.3 567.5C478.9 570.8 484.2 571.3 494.6 569.6L499.6 568.8L501.4 573.4C503.4 578.6 511.4 586.5 519.4 591.1C527.3 595.6 528.3 595.2 525.4 588.2C519.6 574 519.5 573.1 519.5 504C519.5 436.1 519.5 436.1 525.1 401.6L528 383.5V310.2V237L523.3 237.1C520.6 237.1 514.4 238 509.3 239.1Z" fill="#ECC1C1"/>
<path d="M885 391.8C856.1 433.2 831.7 468.4 830.7 469.9C829.1 472.6 829.1 473.2 831.5 485C832.9 491.8 834.1 497.5 834.3 497.6C834.9 498.2 947.5 322.8 947.8 320.9C948 319.5 947.5 319 946 319C944.9 319 942.5 318.4 940.7 317.7L937.5 316.3L885 391.8Z" fill="#15ECC1"/>
<path d="M248.4 217.8C184.6 248.4 132.4 273.9 132.3 274.5C132.3 275 132.8 276.7 133.4 278.1L134.5 280.6L244 228.1C318.6 192.3 354.1 174.7 355.5 173C356.6 171.6 359.2 168.6 361.4 166.2C363.5 163.9 365.1 162 364.9 162C364.7 162 312.3 187.1 248.4 217.8Z" fill="#ECECC1"/>
<path d="M575.4 464C575.4 473.1 575.6 476.8 575.7 472.2C575.9 467.7 575.9 460.3 575.7 455.7C575.6 451.2 575.4 454.9 575.4 464Z" fill="#ECECC1"/>
<path d="M519.2 453C519.2 454.9 519.4 455.7 519.7 454.7C519.9 453.8 519.9 452.2 519.7 451.2C519.4 450.3 519.2 451.1 519.2 453Z" fill="#ECECC1"/>
<path d="M519.4 554C519.4 559.2 519.5 561.4 519.7 558.7C519.9 556.1 519.9 551.9 519.7 549.2C519.5 546.6 519.4 548.8 519.4 554Z" fill="#ECECC1"/>
<path d="M878 692.2C880.4 694.9 882.5 697 882.7 697C883.5 697 882.7 696.1 878.3 692L873.5 687.5L878 692.2Z" fill="#ECECC1"/>
<path d="M516.3 717.7C523.4 717.9 534.6 717.9 541.3 717.7C548 717.6 542.3 717.4 528.5 717.4C514.8 717.4 509.3 717.6 516.3 717.7Z" fill="#ECECC1"/>
<path d="M224 759.2C219.9 759.8 216.3 760.4 216.1 760.6C215.9 760.7 219.7 773.2 224.5 788.2C229.4 803.2 233.3 816 233.3 816.7C233.3 817.6 244.9 823.6 252.6 826.7C253.2 826.9 251.7 819.8 249.3 810.8C246.9 801.8 243.4 787.3 241.5 778.5C239.5 769.7 237.7 761.5 237.5 760.2C236.9 757.7 236.2 757.7 224 759.2Z" fill="#ECECC1"/>
<path d="M819 763.6C816.8 774.7 811 799.5 807.5 812.5C805.6 819.6 804.3 825.6 804.6 825.9C804.8 826.2 809 824.4 813.8 822.1L822.6 817.8L831.5 790.1C836.3 774.9 840.5 762 840.7 761.4C841 760.7 838.5 760.1 833.8 759.7C829.8 759.3 825.1 758.8 823.3 758.4L820.2 757.8L819 763.6Z" fill="#ECECC1"/>
<path d="M809.5 832.7L800.5 837.2L796.1 849.9C790.3 866.7 780.1 890.4 774 901.4C770.6 907.4 769.3 910.7 770 911.5C772.3 914.3 785.1 922.3 785.9 921.4C788.3 918.7 820 829.6 818.9 828.6C818.7 828.4 814.4 830.2 809.5 832.7Z" fill="#ECECC1"/>
<path d="M245 849.2C256.4 883 270 920.3 271.5 921.8C271.9 922.3 286.7 912.3 287.4 911.1C287.7 910.6 285.1 904.6 281.5 897.8C275 885.2 264.6 860.3 259.6 845.4L256.9 837.2L247.9 833.1C243 830.9 238.7 829 238.5 829C238.3 829 241.2 838.1 245 849.2Z" fill="#ECECC1"/>
<path d="M499.2 8.10012C441.6 11.1001 382.4 24.5001 327.5 47.0001C309.4 54.4001 271.3 73.9001 254.5 84.2001C198.7 118.6 148.6 164.1 109.1 216.3C104.7 222.2 101 227.4 101 227.9C101 228.6 108 232 109.4 232C109.6 232 113 227.7 116.9 222.4C141.6 189.7 175.6 155.2 210.5 127.4C284.1 69.0001 376.1 31.2001 470.5 20.6001C483.1 19.1001 514.6 17.1001 524.3 17.0001H528V12.0001V7.00012L521.3 7.10012C517.5 7.20012 507.6 7.70012 499.2 8.10012Z" fill="#1515EC"/>
<path d="M416.3 784.8C410.6 794.9 407.2 832.8 410.1 853.6C411.4 863.2 413.3 868 421.3 882.2C424.9 888.4 430.8 899.6 434.5 907C441.2 920.3 449.8 936 450.5 936C450.7 936 458.9 935.3 468.7 934.5C507.4 931.2 511 930.4 511 924.9C511 922.4 509.8 920.7 504.3 915.7C490.6 903.3 448.2 860.2 440.1 850.5C429.8 838.1 422.3 827.2 420.4 821.7C418.3 815.8 417.1 800 417.9 790C418.3 785.3 418.6 781.4 418.5 781.3C418.4 781.1 417.4 782.7 416.3 784.8Z" fill="#1515EC"/>
<path d="M638.5 799.3V817.5L635.4 824C631.6 832 621.7 845.3 608.3 860.2C597.8 871.8 566.1 903.5 553.3 915C547.2 920.5 546 922.1 546 924.7C546 926.4 546.6 928.3 547.4 928.9C549.3 930.5 557.1 931.7 577 933.5C586.6 934.3 597.3 935.2 600.7 935.6L606.8 936.1L612.3 926.3C618.9 914.4 636.2 881.9 640.7 873C646.2 862 647.3 855.1 647.2 833C647.1 811 644.7 793.3 640.8 785.5L638.5 781.1V799.3Z" fill="#1515EC"/>
<path d="M164 168.7L154.5 178.5L164.3 169C173.3 160.2 174.5 159 173.7 159C173.6 159 169.2 163.4 164 168.7Z" fill="#4015EC"/>
<path d="M309.5 726.4C302.5 731.1 279.2 744.4 276.7 745.3C275.8 745.6 284.1 797.6 290.2 829.4L293.4 846.4L309.5 854.1C318.3 858.3 325.6 861.7 325.8 861.5C325.9 861.4 325.4 855.5 324.6 848.4C321.7 824 319.9 792.4 319.3 756.7C319 737.1 318.4 721 318.1 721.1C317.8 721.1 313.9 723.5 309.5 726.4Z" fill="#4015EC"/>
<path d="M512.5 963.9C481.7 974.8 477 976.6 477 977.4C477 979.4 488.7 993.5 495.9 1000.1C500.2 1004.1 506.3 1008.5 510 1010.3C516.2 1013.4 517 1013.5 528.5 1013.5C542.5 1013.5 546.1 1012.3 556.4 1004.1C565.4 996.9 580 980.4 580 977.4C580 976.9 573.8 974.3 566.2 971.6C558.7 968.9 548.2 965.2 543 963.4C530.4 958.9 526.3 959 512.5 963.9Z" fill="#4015EC"/>
<path d="M1041.5 573.7C1041.1 578 1040 588.2 1038.9 596.5C1020.7 742.5 938.2 875.9 815.5 958C803.7 965.9 791.2 976.2 792.9 976.8C793.4 977 798.9 975.4 805 973.4C817.6 969.2 823.1 965.9 844.5 949.8C936 880.8 1002.4 783.8 1033.5 673.5C1042 643.5 1049.8 599.7 1051.2 574.6C1051.4 569.9 1051.3 569.6 1048.3 568.6C1046.6 568 1044.8 567.2 1044.4 566.7C1042.7 565 1042.1 566.4 1041.5 573.7Z" fill="#EC15EC"/>
<path d="M9.90008 566.9C4.60008 569.7 4.90008 566.8 7.60008 592.5C23.0001 736 102.1 870.3 222.5 957.4C235.4 966.7 242.3 970.4 254 974.3C262.1 976.9 274.7 978.8 272 977C271.2 976.4 264.1 971.9 256.2 967C125 885 36.2001 746.2 18.1001 594.5C17.0001 585.1 15.7001 574.6 15.3001 571L14.5001 564.5L9.90008 566.9Z" fill="#156BEC"/>
<path d="M89.9 243.8C33.7 329.5 4.1 428.5 4 530.6C4 540 4.3 552.5 4.7 558.3L5.3 569L10 566.4L14.7 563.9L14.2 538.6C12.6 454.8 30.4 378 69.3 299.5C80.7 276.6 84.6 270 101.8 244.2C105.9 238 109.1 232.8 108.9 232.7C107.7 231.9 100.8 229 100.2 229C99.8 229 95.2 235.7 89.9 243.8Z" fill="#15C1EC"/>
<path d="M47 710.3C47 712.1 58.7 739.6 65.9 754.5C99.7 824.5 151.4 888.3 214 937C235.4 953.7 271 977 275.1 977C277.4 977 282.7 972.5 284.5 968.9C286.7 964.7 286.3 958.4 283.4 953.2C283.4 953.1 282 953.6 280.4 954.5C268.9 960.5 241.6 949.6 211.2 926.8C197.9 916.8 173.9 892.7 158.2 873.5C151 864.7 141 852.5 135.9 846.5C123.4 831.6 105 807 93.9 790.3C88.8 782.7 83.4 774.9 81.9 773C77.6 767.4 65.4 745.9 55.9 727C51 717.4 47 709.9 47 710.3Z" fill="#15C1EC"/>
<path d="M495 19C477.2 20.3 451 23.7 433 27C332.7 45.9 237.6 96.2 166.5 168C154.5 180.1 152.9 182.1 155.5 181.6C163.4 180.1 178.7 178.9 189.8 179.1L202.1 179.2L211.8 170.8C261.2 127.9 317.9 95.7 379.5 75.7C400.6 68.8 435.4 60.1 436.6 61.3C436.9 61.6 424.2 80.9 408.4 104.2C384.9 138.7 377.7 148.6 369.1 157.7C356.3 171.5 345.2 186 327.9 211.8C305.4 245.2 289 265.7 266 289.2C258.6 296.8 252.8 303 253.2 303C253.7 303 259.8 301.9 266.9 300.5C283.7 297.2 301.8 291.8 310 287.8C325.4 280 355.1 258.5 389 230.5C430.5 196.2 453.9 180.9 476.8 173.1C487.2 169.5 505.8 165.5 516.8 164.5L524 163.8V149.4C524 138.5 523.7 135 522.8 135C518.5 135 500.1 138.4 492.8 140.5C461.7 149.4 423.7 173 393.4 202.2C388.4 207.1 384 211 383.6 211C382.3 211 389.2 202.9 400 191.6C436 154.2 478.1 130.9 517.8 126.5L524 125.8V110.4V95H518.1C510.4 95 493.9 96.7 482 98.6C453.7 103.3 426.5 113.5 405.6 127.2C402.4 129.3 399.6 130.9 399.4 130.7C399.2 130.5 409.9 114.3 423.3 94.7C439.5 70.9 448.2 58.9 449.6 58.6C454.1 57.4 482.8 54.1 491 53.8L499.5 53.5L500.1 58.5C501.4 68.5 506.3 75.6 515.1 80.5C519.9 83.2 521.4 83.5 529 83.5C535.8 83.5 538.3 83 541.5 81.3C550.3 76.6 556.6 67.1 557.2 57.6L557.5 52.8L566 53.5C575.9 54.3 604.1 57.7 607.6 58.6C609.3 59 616.5 68.8 634.5 95.3C648 115.1 658.8 131.5 658.6 131.7C658.4 131.9 654.7 129.8 650.4 127C622.8 108.9 586 98 544.3 95.4L533 94.7V110.4V126H535.8C548.2 126 574.8 133.8 592.3 142.5C619.4 156.1 649.8 180.7 669.6 205.1C678.8 216.4 678.3 216.4 666 204.9C631.3 172.7 601.2 153.2 569.6 142.6C561.4 139.9 546 136.5 537.8 135.7L533 135.2V149.5V163.7L540.3 164.3C558.1 165.8 579.6 171.5 595.8 179.1C611.3 186.3 636.9 204.3 668 230.1C697.6 254.7 722.6 273.2 740.1 283.5C749.4 289 763.4 294.2 777.8 297.6C785.1 299.3 804 302.9 804 302.5C804 302.4 798.6 297 791.9 290.4C769.8 268.6 751.6 246 728 211C709.6 183.8 699.4 170.2 688 157.9C680.8 150.1 671.5 137.3 649.2 104.7C633.1 81.1 620.1 61.6 620.3 61.4C620.7 61 645.2 66.4 654.8 69C719.4 86.9 778.2 116.9 830 158.6C836.3 163.6 844.3 170.4 847.8 173.5L854.1 179.2L870.8 179.5C880 179.6 891 180.3 895.3 180.9C899.7 181.6 903.5 181.8 903.8 181.5C904.7 180.5 877.1 153.7 861.9 140.9C781.9 72.8 687.1 32 582 20.5C564.9 18.6 513.5 17.7 495 19ZM536.8 38.6C543.6 42 547 47.4 547 54.9C547 63.3 543.1 69.4 535.7 72.5C529.3 75.2 520.7 73.8 515.7 69.2C509.7 63.8 508.2 52.7 512.5 45.4C515.3 40.7 523.2 36 528.5 36C530.2 36 534 37.2 536.8 38.6Z" fill="#ECECEC"/>
<path d="M528 311.1V385.5L525 403.9C519.6 437.6 519.5 439.2 519.5 505C519.6 572.1 519.7 573.6 525.7 588.7C528 594.5 528.3 594.8 530.8 594C540.1 591.4 552.8 580.8 555.6 573.4L557.3 568.8L561.9 569.7C564.4 570.1 569.2 570.5 572.6 570.5C577.7 570.5 579.4 570 583 567.5C590.7 562.1 590.8 557.9 583.2 550C578.9 545.5 577.9 545 574.1 545C571.5 545 568.7 545.7 567.2 546.9C562.7 550 554 554.1 553 553.5C550.1 551.7 549.6 544.6 549.3 489.5C549 454.3 549.3 430 549.9 423.8C551.7 407.3 556.7 397.8 565.8 393.8C575.7 389.4 638.3 389.2 654 393.5C657 394.3 659.6 395 659.7 395C659.8 395 660.6 392.6 661.5 389.7C664.1 381.3 664.6 366.8 662.6 357C656.4 326.5 631.7 284.9 609.5 267.5C589.3 251.7 558.5 239.1 535.8 237.3L528 236.7V311.1Z" fill="#ECECEC"/>
<path d="M96.3001 263C87.1001 266.7 84.4001 270.3 70.7001 298.1C40.7001 358.9 25.2001 410.7 17.3001 476.5C14.7001 498.2 14.7001 560.7 17.3001 583.5C22.1001 625.7 31.7001 668.7 42.2001 695.5C53.1001 723.2 78.6001 769.8 86.8001 777C97.0001 786 113.4 786.3 123.5 777.7L127.5 774.3L157 788.6C173.2 796.5 199.8 809.4 216 817.4C232.2 825.3 265.1 841.3 289 852.8C312.9 864.4 355.6 885.1 383.8 898.8L435.1 923.7L442.9 937.7C463.7 974.8 482.8 999.6 498.3 1009.4C501.4 1011.4 504 1013.4 504 1013.9C504 1014.4 506.6 1015.6 509.8 1016.6C517.8 1019.2 536.8 1019.2 546.3 1016.6C550 1015.6 552.8 1014.5 552.5 1014.2C552.2 1013.9 554.7 1011.9 558.1 1009.8C572.8 1000.5 593.4 974.5 610.6 943.7C613.8 938.1 617.5 931.3 619 928.6L621.8 923.7L680.1 895.3C712.2 879.6 752.1 860.2 768.8 852.2C785.4 844.1 828.4 823.3 864.3 805.9L929.5 774.3L932.4 776.7C937.4 780.8 943.2 783.2 949.6 783.8C962 784.8 971.5 778.8 979.6 765.1C986.7 753.1 1006 714 1013 697.6C1021.3 678 1022.4 674.6 1027 656.1C1038.6 609.8 1042.8 570.7 1041.7 519.5C1040.1 442.2 1022 369.7 987 300.5C982.3 291.1 977.6 281.4 976.7 278.8C974.1 272 965.8 264.6 958.5 262.4C944.8 258.5 930.7 264.7 924.4 277.6C922 282.5 921.8 283.9 922.2 291.3C922.7 300.7 924.2 304.2 930.2 310.2C936.2 316.2 941.9 318.4 951.7 318.4H959.9L963.1 325.4C977.1 356.6 984.9 377.3 991.9 402C1003.4 442.7 1008.6 478.3 1009.7 522.5C1011 575.7 1004.5 623.3 989.1 674.2C983.3 693.3 970.2 727.7 967.5 730.8C967.3 731 966.4 730.6 965.3 730.1C964.3 729.5 961.7 728.4 959.5 727.6C956.2 726.5 955.4 725.8 955.2 723.4C954.9 721.2 952.8 718.7 946.8 713.5C937.7 705.6 918 684.6 908.4 672.5C868.1 622.2 849.6 576.9 830 480.7C827.3 467.4 822.8 442.8 820.1 426C817.3 409.2 811.3 377 806.8 354.4L798.7 313.4L784.6 312.2C776.8 311.5 769.4 310.7 768.1 310.3C766.1 309.8 765.8 310 766.2 311.6C766.5 312.6 768.8 320.5 771.3 329.1C781.8 365.3 788.9 402.4 794 448C800.2 503.9 808.2 545.6 821 590.1C827.1 611 830.6 620.3 838.1 635C850.5 659.5 863.3 677.2 880.6 694.1C898.7 711.6 915.8 721.6 936.8 727L941.2 728.1L936.8 730.9C925.4 738.1 920.6 750.7 924.4 763.4L925.8 768.1L921.7 770.2C910.8 775.7 823.5 818 822.9 818C822.3 818 785.1 836.1 719 868.6C670.1 892.6 628.5 912.8 628.2 912.5C628 912.3 641.7 886.7 665.5 843C686.8 804 692.6 791.1 697.9 770.8C703.3 750.4 705.2 734.6 705.7 703.5C706.7 646.5 700.4 626.5 673.2 600.9C664.9 593.1 653.2 585 650.3 585C649.6 585 649 585.9 649 586.9C649 590.2 655.6 610.8 662.9 630.5C666.6 640.7 669.3 649 668.9 649C668.4 649 668 648.6 668 648.1C668 646.8 658.4 634.5 651.7 627.3C638.8 613.5 623.2 601.3 607 592.3C600 588.5 585.3 582 583.5 582C581.2 582 560 595 560 596.5C560 597.3 565.1 601.2 571.3 605.3C605 627.6 636.1 654.7 647 671.3C657.5 687.2 667.9 712.7 671.7 731.7C676.3 754.8 672.4 788.5 660.5 830C655.5 847.4 652 855.4 642 873.2C637.1 881.8 628.4 897.8 622.7 908.7C617 919.6 610.8 931 609 934C600.3 948.4 578.1 982.2 573.8 987.7C567.9 995.2 556.1 1006.3 550.5 1009.5C538.2 1016.7 518.6 1016.6 506 1009.3C503.5 1007.8 497 1002.1 491.5 996.6C482.8 987.8 479.5 983.4 466.4 963C447 932.7 445.8 930.7 435.5 910.5C430.7 901.1 424 888.7 420.6 882.7C417.3 876.8 412.1 867.8 409.3 862.8C400.9 847.9 392 818.5 386.4 786.3C382.8 766.1 382.6 744.2 385.8 729.3C389.8 710.6 399.4 687.6 409.5 671.8C420.4 654.9 451.6 627.7 485.4 605.5C491.8 601.3 497 597.4 497 597C497 595.7 491.8 592 481.9 586.3L473.4 581.2L467.9 583.5C457.9 587.6 444.5 594.8 435 601.1C424.3 608.2 402.8 628.6 394.7 639.1C391.9 642.9 389.5 645.8 389.3 645.6C389.1 645.5 391.7 638 395 629C402 610.2 408 591 408 587.4C408 585.7 407.4 585 406.1 585C402.7 585 388.8 595.1 380 603.8C357 627 350.6 647.2 350.6 696.5C350.6 738 355.3 766.7 366.5 794.2C372.1 807.7 375.4 814.4 390 841C412.6 882.3 428.1 911.2 427.8 911.5C427.6 911.7 411.3 903.9 391.5 894.3C371.7 884.7 342 870.4 325.4 862.5C308.9 854.6 276.2 838.8 252.9 827.3C229.6 815.8 192.8 797.9 171.2 787.5L131.9 768.5L132.7 765.5C133.1 763.8 133.5 758.9 133.4 754.5C133.4 748.3 132.9 745.6 131.3 742.4C128.8 737.8 119.6 729 117.2 729C114.4 729 116.7 728 124.1 725.9C142.7 720.8 160.2 709.8 177.6 692.5C201.4 668.8 220.4 638.3 230.6 607.2C245.8 561.3 255.6 512.8 263.5 444.5C269 397.7 277.8 354.1 288.5 320.1L291.8 309.7L287.2 310.4C284.6 310.7 277.1 311.5 270.5 312.1C263.9 312.7 258.4 313.2 258.3 313.4C257.4 314.3 242.2 392.8 237.6 420.5C226.7 485.2 223.6 501.1 216 530.6C210.3 552.6 200.8 582.5 194.9 596.6C178.9 635.2 155.3 669 119.9 704.3C106.8 717.3 102 722.7 102 724.4C102 726.3 101.3 726.9 98.8001 727.4C97.0001 727.7 94.2001 728.7 92.6001 729.5C91.0001 730.4 89.6001 730.9 89.5001 730.8C88.5001 729.8 79.3001 706.9 75.2001 695.4C39.7001 596.5 37.9001 487.4 70.0001 386.5C75.1001 370.5 85.4001 344.5 92.4001 329.5L97.7001 318.3H105.6C118.8 318.3 128.1 312.7 133.1 301.5C135.9 295.4 136.1 284.5 133.7 278.8C131.6 273.8 124.5 266.3 119.5 263.8C113.6 260.7 103 260.4 96.3001 263ZM114.5 272.9C126.6 278.4 129.3 293.7 119.9 303.1C113.7 309.3 106.4 310.5 98.4001 306.5C91.2001 302.9 88.5001 298.4 88.5001 290C88.5001 284.5 88.9001 282.7 91.2001 279.3C96.2001 271.8 106.1 269 114.5 272.9ZM955.2 272C962.8 274.1 969 282.2 969 290C969 300.9 958.1 310 947.4 308.1C942.5 307.2 940.2 305.9 936.8 302.3C928.4 293.4 931 279.2 942.2 273.6C947.9 270.7 949.7 270.5 955.2 272ZM114 738.5C120.4 741.8 124.4 749.2 123.8 756.6C122.9 767.6 114.4 774.7 103.4 773.8C96.3001 773.2 91.6001 769.9 88.3001 763.2C85.4001 757.2 85.5001 752.5 88.7001 746.3C93.3001 737.6 105.1 733.9 114 738.5ZM961 739C971.5 744.3 973.8 758.4 965.7 767.7C961.8 772.1 957.5 774 951.5 774C939.4 774 930.8 762.8 933.9 751.1C935.3 745.6 937.6 742.3 942 739.2C946.4 736.3 955.4 736.1 961 739Z" fill="#ECECEC"/>
<path d="M581.1 441.6L575.8 446.4L576.2 467.9C576.5 486 576.9 490.2 578.5 494C580.3 498.5 586.4 507.9 596.2 521.5C606.1 535.2 610.3 547.9 613.4 573.9C614.4 582.2 615.2 585.6 616.4 586.2C617.3 586.7 621 589.5 624.7 592.5C631.1 597.6 631.5 597.8 632.3 595.8C632.8 594.4 632.5 592.4 631.4 590.2C626.6 580.1 636.7 549.3 658.9 506C677.5 469.6 691.1 441.9 690.8 440.9C690.6 440.5 682 443.5 671.5 447.7C640.3 460 639.4 460.3 632 459.8C624.1 459.2 619.9 457.2 608.9 448.5C599.5 441 595.1 438.5 589.9 437.5C586.7 436.9 585.9 437.3 581.1 441.6Z" fill="#ECECEC"/>
<path d="M483.4 641.5C471.2 644.1 458.8 652.2 446.1 665.5L437.9 674.3L440 676.5C441.2 677.8 444.8 680 448 681.4C459.8 686.7 477.3 685.7 496.1 678.6L504.7 675.4L508.1 677.7C520.6 686.3 536.4 686.3 548.9 677.7L552.3 675.3L559.9 678.3C569 681.8 583.5 685 590.7 685C602.6 685 618 679.1 618 674.4C618 672.4 603.1 657.2 596.4 652.4C588.2 646.5 578.8 642.4 570.6 640.9C559.1 638.9 542.2 642.5 532.5 648.9L528.5 651.6L524.5 648.9C519.6 645.5 510.4 642.3 502 641C493.9 639.8 491 639.8 483.4 641.5Z" fill="#ECECEC"/>
<path d="M499.7 721.9C492.3 730.1 492.5 729 492.5 753.4C492.5 775.1 492.6 775.7 495.3 783.5C496.9 787.9 502.3 799.1 507.5 808.5C518.4 828.3 521.9 837.8 525.6 856.7C527 864.3 528.3 870.6 528.4 870.8C528.6 870.9 529.7 865.5 531 858.8C535.2 836.5 537.6 829.9 550 807.5C554.9 798.7 560.1 787.9 561.5 783.5C564.7 774.1 565.7 760 564.5 741.7L563.8 729.9L558.9 723.9L553.9 718H528.6H503.2L499.7 721.9Z" fill="#ECECEC"/>
</svg>
