<svg width="256" height="256" viewBox="0 0 256 256" fill="none" xmlns="http://www.w3.org/2000/svg">
<path d="M145 34.3C126.5 35.9 106.9 45.4 92.1 59.9C86.3 65.4 85.2 66.9 88.5 64.3C100.6 54.8 110 49.7 122.8 45.6C132.2 42.6 145.3 40.9 152.3 41.7C158.1 42.4 158.2 43.1 154.1 54.7C150.4 65.5 144 76.5 136.3 85.5C121.9 102.4 98.8 111.9 82 107.8C76.8 106.5 76 106.5 77.5 107.7C81.2 110.3 89.5 112.1 98.2 112.1C123.5 112.1 142.4 99.3 156.6 72.6C161.6 63.3 164.5 55.3 165.5 48.5C165.9 46 166.5 44 166.8 44C167.1 44 169.3 44.9 171.6 46.1C176.7 48.5 179.8 53 180.6 59.2C181.2 63.5 181 63.8 175.6 70.1C170.2 76.2 167.4 81.2 160 97.5C155.3 108.1 152.5 111.5 141.6 120C128.3 130.2 125 134.8 122 146.9C120 154.8 119.5 155.1 102.5 155.3C84.1 155.5 73.3 151.1 66.3 140.6C62.1 134.5 61.9 137.2 65.8 145.5C72.4 159.4 84.1 165 106.3 165.1H118L117.4 167.8C115.9 173.9 113.8 178.5 110.5 183.1L107 188H114.1H121.1L123.1 183.6C124.2 181.1 126.3 172.7 127.9 164.8C130.8 149.9 133 144.4 138.1 138.6C146.2 129.3 162 128.2 170.9 136.3C175.9 140.9 179.2 153.7 177.1 160.3C175.6 164.7 169.4 170.6 159.5 177L151.5 182.2L156.3 181.6C168.7 180.1 183 172.7 188.1 165.1C191.4 160 192 153.1 189.6 146.3L188.2 142.3L195.3 141.7C210.4 140.6 220.3 134 226.3 121.2C229 115.4 229.5 113.2 229.8 104.4C230.5 86.8 225.1 72.7 212.6 59.3C194.8 40.2 172.1 31.8 145 34.3ZM198.4 68.2C187.6 79.8 184.7 98.8 191.9 111.5L195.1 117.2L191.3 120.6C189.2 122.4 186.9 123.9 186.1 124C183.8 124 177.5 116.6 176.2 112.3C171.8 97.5 181 76.2 195.4 68C198.2 66.3 200.7 65 200.9 65C201.2 65 200 66.5 198.4 68.2Z" fill="#151515"/>
<path d="M120.8 53.1001C119.5 53.8001 119 55.4001 119 58.5001C119 60.9001 118.5 66.2001 118 70.2001C116.3 81.7001 116.3 81.5001 118.6 81.8001C123.3 82.5001 127 72.7001 127 59.2001C127 52.4001 126.9 52.0001 124.8 52.0001C123.5 52.0001 121.7 52.5001 120.8 53.1001Z" fill="#151515"/>
<path d="M92.2 66.2C91.5 66.9 91 70.2 91 73.9C91 77.6 90.3 83.4 89.6 87C88.1 94.1 88.2 95 91 95C95.7 95 99 85.7 99 72.5V65H96.2C94.7 65 92.9 65.5 92.2 66.2Z" fill="#151515"/>
<path d="M205.2 148.7C208.5 152.5 211.3 159.7 211.8 165.6C212.2 170.8 211.8 172.6 209.5 177.9C204.9 188.1 190.9 199.8 174.6 206.9C167.6 210 167.3 209.5 173.2 204.7C180.7 198.6 187.4 189.9 192.6 179.6C195 174.7 196.9 170.5 196.6 170.3C196.4 170.1 193.2 172.2 189.6 175C161.7 196 106.2 206.8 76.2001 196.9C68.9001 194.5 62.0001 188.7 61.9001 184.9C61.9001 182.7 61.8001 182.6 61.0001 184.5C57.7001 192.1 62.4001 200.7 72.6001 205.8C82.0001 210.5 88.3001 211.5 109.5 211.4C128.5 211.3 130.1 211.2 141.2 208.2C147.7 206.5 157.4 203.1 162.7 200.6C173 195.8 172.5 196.8 160.8 204.6C147.8 213.2 132.3 218.2 113.4 219.7C105.1 220.4 104.8 220.5 109 221.1C116 222.3 147 222.1 155.6 220.9C193.6 215.6 223.4 197.2 226.6 177.1C228 168.1 222.4 158.1 212 151.1C205.5 146.8 202.6 145.8 205.2 148.7Z" fill="#151515"/>
<path d="M193.2 70.3C187.5 74.7 183 80.5 179.4 88.2C176.9 93.7 176.5 95.7 176.5 103.6C176.5 111.8 176.8 113 179.3 116.9C180.8 119.2 183.2 121.6 184.6 122.2C186.8 123.2 187.4 123 190.3 120.2L193.6 117L190.6 110.8C187.8 105.2 187.5 103.6 187.5 95.5C187.5 84.9 189.5 78.1 194.6 71.4C196.5 69 197.9 67 197.7 67C197.6 67 195.6 68.5 193.2 70.3Z" fill="#409615"/>
<path d="M150.9 42.9C150.6 45.1 150.4 45.6 144.4 58.8C137.1 74.7 121.9 92.1 109.3 98.8C101.1 103.1 91.1 105.4 83.5 104.5C77.6 103.9 77.5 103.9 80 105.7C83.5 108.1 93.2 108.6 101.1 106.6C122.2 101.3 139.1 86.1 150 62.6C153.6 54.8 156.8 44.5 155.9 43.6C154.7 42.5 151 42 150.9 42.9Z" fill="#6BC115"/>
<path d="M74 147.4C74 148.7 84 152.9 89.5 153.9C96.5 155.2 108.7 155.4 109.4 154.1C109.7 153.7 108.8 152.2 107.4 150.9C105 148.6 104.2 148.5 91.2 148.5C83.7 148.5 76.7 148.1 75.8 147.6C74.8 147.2 74 147.1 74 147.4Z" fill="#6BC115"/>
<path d="M47.0001 23.5001C47.0001 24.3001 46.6001 25.8001 46.1001 26.8001C45.5001 27.7001 44.3001 30.4001 43.4001 32.7001C42.4001 35.1001 41.3001 37.0001 40.9001 37.0001C40.5001 37.0001 38.9001 37.5001 37.3001 38.2001C35.8001 38.8001 33.6001 39.5001 32.5001 39.7001C31.4001 39.9001 29.8001 40.7001 29.0001 41.5001C27.7001 42.8001 27.8001 43.0001 29.3001 43.0001C30.2001 43.0001 31.1001 42.9001 31.3001 42.7001C31.5001 42.6001 32.8001 43.3001 34.3001 44.3001C35.7001 45.2001 38.0001 46.2001 39.2001 46.3001C41.7001 46.7001 42.8001 48.6001 45.8001 57.0001C47.5001 62.0001 47.8001 62.3001 48.8001 60.3001C49.5001 59.1001 50.1001 57.3001 50.3001 56.3001C51.0001 52.4001 54.0001 47.0001 55.4001 47.0001C56.3001 47.0001 57.0001 46.6001 57.0001 46.1001C57.0001 45.6001 58.8001 45.0001 61.0001 44.6001C63.2001 44.3001 65.0001 43.5001 65.0001 42.9001C65.0001 42.3001 65.7001 42.0001 66.5001 42.4001C67.3001 42.7001 68.0001 42.5001 68.0001 42.0001C68.0001 41.4001 66.9001 41.0001 65.5001 41.0001C64.1001 41.0001 63.0001 40.5001 63.0001 40.0001C63.0001 39.4001 62.4001 39.0001 61.6001 39.0001C60.8001 39.0001 58.9001 38.5001 57.3001 37.8001C55.8001 37.2001 54.2001 36.7001 53.8001 36.8001C53.3001 36.9001 53.0001 36.7001 52.9001 36.2001C52.7001 33.5001 51.8001 30.5001 50.8001 28.7001C49.5001 26.3001 49.3001 25.8001 49.1001 23.5001C49.0001 21.5001 47.0001 21.5001 47.0001 23.5001Z" fill="#C1EC40"/>
<path d="M134 24.1C129.9 25.2 125.9 26.1 125.3 26.2C124.6 26.3 124 26.7 124 27.2C124 27.7 123.4 28 122.8 27.9C120.8 27.6 116 29.1 116 30.1C116 30.6 115.4 31 114.6 31C112.3 31 99.8001 37.8 96.8001 40.7C95.3001 42.2 94.0001 43.1 94.0001 42.7C94.0001 41.6 90.3001 44.9 82.0001 53C74.2001 60.8 68.3001 67.9 68.8001 69.2C68.9001 69.7 68.5001 70 68.0001 70C67.4001 70 67.0001 70.5 67.0001 71C67.0001 71.6 66.1001 73 65.0001 74.2C64.0001 75.4 63.3001 76.6 63.5001 77C63.8001 77.4 63.3001 78.3 62.5001 79C61.7001 79.7 61.0001 80.9 61.0001 81.6C61.0001 82.4 60.6001 83 60.0001 83C59.5001 83 59.0001 83.7 59.0001 84.5C59.0001 85.3 58.6001 86.8 58.0001 87.8C55.8001 91.9 53.4001 98.4 52.6001 102.7C52.4001 103.7 51.7001 106.3 51.2001 108.5C49.8001 113.9 49.7001 134 51.0001 139.2C52.5001 145.1 56.2001 154 57.1001 154C57.5001 154 58.2001 155 58.5001 156.2C59.4001 159 66.9001 167 68.7001 167C69.4001 167 70.0001 167.4 70.0001 168C70.0001 168.5 70.7001 169 71.5001 169C72.3001 169 73.0001 169.4 73.0001 169.9C73.0001 170.7 77.5001 172.6 81.5001 173.6C82.1001 173.8 83.6001 174.2 85.0001 174.5C86.4001 174.9 90.0001 175.4 93.0001 175.7C96.0001 176 98.6001 176.3 98.8001 176.5C98.9001 176.6 97.0001 178.8 94.6001 181.4C90.3001 185.8 89.8001 186.1 85.6001 185.7C83.1001 185.5 80.7001 185.1 80.4001 184.7C80.0001 184.3 78.7001 184 77.5001 184C76.3001 184 74.4001 183.1 73.2001 182C72.0001 180.9 70.7001 180 70.3001 180C69.5001 180 64.6001 173 64.5001 171.8C64.5001 171.5 64.2001 170.9 63.8001 170.5C63.4001 170.1 63.4001 169.2 63.7001 168.4C64.5001 166.2 61.2001 165.6 58.4001 167.4C57.1001 168.4 55.5001 170.2 55.0001 171.6C54.5001 172.9 53.6001 174 53.0001 174C52.4001 174 52.2001 174.4 52.5001 175C52.8001 175.5 52.7001 176 52.2001 176C50.6001 176 48.6001 184.1 48.6001 190.9C48.5001 196.8 48.9001 198.2 51.5001 202.1C55.4001 207.7 59.1001 212 60.2001 212C60.7001 212 62.0001 212.9 63.2001 214C64.4001 215 65.6001 215.7 66.0001 215.5C66.4001 215.2 67.8001 216.4 69.0001 218C71.3001 221 75.3001 224.1 77.4001 224.4C78.0001 224.5 79.5001 225.2 80.8001 225.8C82.0001 226.5 83.0001 226.8 83.0001 226.4C83.0001 226.1 83.6001 226.2 84.3001 226.7C84.9001 227.3 86.9001 228.1 88.5001 228.5C90.2001 229 92.2001 229.5 93.0001 229.7C93.8001 230 95.4001 230.3 96.5001 230.5C97.6001 230.7 98.5001 230.9 98.5001 231C98.5001 231.2 99.4001 231.4 100.5 231.5C101.6 231.7 104.5 232.2 107 232.6C112.5 233.7 149.8 233.7 156 232.6C158.5 232.2 161.6 231.7 163 231.5C164.4 231.2 166.7 230.8 168.3 230.6C169.8 230.3 172.1 229.9 173.3 229.7C174.6 229.5 176.2 229 176.9 228.6C177.5 228.2 179.3 227.7 180.8 227.4C185.2 226.7 196 222.7 196 221.8C196 221.4 196.3 221.1 196.8 221.2C197.8 221.5 207.4 216.8 207.8 215.8C208 215.3 208.6 215.2 209.1 215.6C209.6 215.9 210 215.6 210 215.1C210 214.5 210.6 214 211.3 214C212 214 213.7 212.9 215.2 211.5C216.7 210.1 218.3 209 218.7 209C220.1 209 232 196.1 232 194.5C232 193.7 232.5 193 233 193C233.6 193 234 192.6 234 192.1C234 191.6 234.8 189.5 235.7 187.4C236.6 185.2 237.6 182.6 237.8 181.5C238.5 178.8 238.4 169.1 237.6 166C236.7 162.1 233.8 156 232.8 156C232.4 156 232 155.4 232 154.6C232 153.8 230 151.2 227.5 148.8C222.8 144.2 222.1 143 224.4 143C225.8 143 233 135.1 233 133.6C233 133.2 233.7 132.2 234.5 131.4C235.3 130.5 236.3 128.7 236.7 127.2C237 125.7 237.7 124.3 238.1 124C238.6 123.7 239.1 122.5 239.3 121.5C239.5 120.4 240.1 118.6 240.5 117.6C241.6 115 241.7 91.6 240.6 86.5C240.2 84.3 239.3 81.9 238.8 81.2C238.2 80.6 238.1 80 238.5 80C238.9 80 238.8 79.4 238.2 78.7C237.7 78.1 236.9 76.1 236.6 74.3C236.2 72.6 235.2 70.6 234.4 69.9C233.6 69.3 233 68.4 233 67.9C233 66.7 227.9 58.8 226.5 57.8C226 57.4 225.9 57 226.3 57C226.7 57 225.3 55.3 223.1 53.3C220.9 51.3 219.3 49.3 219.5 48.9C219.8 48.5 218.9 47.5 217.6 46.6C216.2 45.8 214 44 212.7 42.8C208.8 39.2 207 37.9 207 38.5C207 38.8 206 38.1 204.8 37C203.5 35.9 201.5 34.7 200.3 34.4C199 34 198 33.4 198 32.8C198 32.3 197.6 32.2 197 32.5C196.5 32.8 196 32.7 196 32.1C196 31.6 194.3 30.6 192.3 29.9C190.2 29.3 188.1 28.4 187.5 28C187 27.6 183.1 26.2 179 24.9C168.4 21.7 145 21.3 134 24.1ZM167.9 34.1C183.3 36.5 198.8 44.8 211 57C224 70 231 85.7 231 101.9C230.9 125 216.2 141.6 195.5 142.2C191.9 142.3 189 142.4 189 142.4C189 142.5 189.7 144.7 190.5 147.4C192.5 154 192.4 158.3 190.1 162.9C185.8 171.3 174.6 178.2 160 181.4C155.9 182.4 148.7 184 144 185C139.3 186.1 132.4 187.4 128.5 188C121.2 189 106 189.4 106 188.5C106 188.2 107.5 186 109.4 183.5C112.6 179.4 117 169.6 117 166.7C117 165.8 113.7 165.5 104.7 165.5C90.7001 165.5 84.0001 163.9 76.4001 158.8C65.2001 151.2 61.5001 142.2 61.6001 122.5C61.6001 111.1 61.9001 108.6 64.3001 101.7C68.1001 90.9 73.8001 79.8 75.2001 80.6C75.9001 81 76.0001 80.9 75.6001 80.2C75.2001 79.6 76.8001 76.4 79.2001 73.3C101 43.6 134.7 28.7 167.9 34.1ZM209.5 148.9C215.4 152.3 223.5 160.7 225.6 165.5C227.7 170.7 227.4 179.2 224.8 184.8C221.8 191.3 211 201.6 201.6 206.9C192.2 212.2 177.7 217.3 163.8 220.2C154.9 222.1 150.3 222.4 130.5 222.3C102.7 222.2 95.6001 221 113.2 219.2C119.6 218.5 129.1 216.9 134.4 215.6C144.2 213.1 159 206.1 164.5 201.5L167.5 198.9L162.5 201.3C155.2 204.9 143.2 208.7 133.2 210.7C120.7 213.2 94.1001 213.1 84.5001 210.6C65.4001 205.6 55.9001 195.5 60.3001 184.9L61.7001 181.5L62.4001 184.7C64.5001 194 80.5001 200 103 200C134.5 200 168.7 189.8 190.2 173.8C194.5 170.6 198 168.2 198 168.5C198 168.8 196.8 171.9 195.4 175.3C191.5 184.6 184.5 194.7 177.1 201.9L170.6 208.2L179 204C189.6 198.7 194.5 195.4 201 189C212.9 177.4 214.4 162.2 204.9 148.9C202.3 145.3 203.2 145.3 209.5 148.9Z" fill="#C1EC40"/>
<path d="M137.5 43L133.5 43.7L138 43.9C140.5 44 144.2 44.3 146.3 44.6C149.3 45.1 150 45 150 43.6C150 41.8 145.3 41.6 137.5 43Z" fill="#C1EC40"/>
<path d="M136.2 48.8001C131.2 50.1001 130.1 50.7001 130.6 51.9001C132.7 56.5001 131.6 74.4001 128.9 80.3001C127.6 83.2001 122.9 84.7001 118.6 83.6001C115.3 82.8001 115 81.5001 116.6 74.0001C118.2 66.2001 118.4 56.0001 117 56.0001C116.4 56.0001 114.9 56.6001 113.7 57.4001C112.5 58.1001 109.3 59.9001 106.7 61.5001C103.1 63.5001 102.1 64.5001 102.9 65.3001C105.4 67.8001 103 91.8001 100 94.5001C97.5001 96.8001 91.9001 97.4001 89.6001 95.7001C87.8001 94.4001 87.7001 93.8001 88.8001 87.2001C90.2001 78.7001 90.3001 74.0001 89.1001 74.0001C87.8001 74.0001 77.4001 85.7001 74.0001 91.0001C72.4001 93.5001 70.6001 96.1001 70.0001 96.7001C68.1001 99.0001 72.0001 103.9 77.5001 106C80.3001 107.1 80.3001 107 78.7001 105.2C77.0001 103.4 77.2001 103.3 84.9001 103.8C98.2001 104.6 111.3 99.2001 123.5 87.9001C131.9 80.2001 142.1 64.7001 146.9 52.2001L149 47.0001L145.7 47.1001C144 47.2001 139.7 47.9001 136.2 48.8001Z" fill="#C1EC40"/>
<path d="M70.0001 90C68.7001 92.7 68.0001 95.3 68.3001 95.6C68.7001 96 69.3001 95.4 69.6001 94.4C70.0001 93.4 70.9001 91 71.7001 89.1C73.8001 83.8 72.6001 84.4 70.0001 90Z" fill="#C1EC40"/>
<path d="M67.6 141.6C69.9 144.9 73.4 146.7 81.2 148.1C87.7 149.3 100.5 148.6 101.5 147C102.2 145.9 92.8 142.1 85.1 140.4C81.5 139.7 75.7 139 72.2 139H66L67.6 141.6Z" fill="#C1EC40"/>
<path d="M23.2001 63.9C22.0001 66.8 20.7001 68.9 20.2001 68.6C18.9001 67.8 15.6001 70.5 16.4001 71.8C16.7001 72.4 18.3001 73.1 19.9001 73.5C22.4001 74 23.0001 74.8 23.5001 78.1C23.9001 80.2 24.7001 82.3 25.2001 82.6C25.9001 83 26.0001 82.8 25.6001 82.2C25.2001 81.5 25.3001 81 25.9001 81C26.5001 81 26.7001 80.3 26.4001 79.5C26.0001 78.7 26.3001 78 27.0001 78C27.6001 78 27.9001 77.6 27.5001 77.1C27.2001 76.6 28.2001 75.3 29.7001 74.2C32.6001 72.1 33.0001 72 35.5001 72C38.4001 72 36.9001 70.3 33.0001 69.1C30.4001 68.3 28.6001 67.1 28.1001 65.7C27.6001 64.5 26.8001 62.4 26.3001 61.1C25.4001 58.9 25.3001 59 23.2001 63.9Z" fill="#C1EC40"/>
<path d="M166 50.2C164.6 56.2 157.1 75.9 153.3 83.5C144.5 101 128.4 115.1 112.7 119.1C106.3 120.7 102 124.3 102 128.1C102 130.4 103.4 132.4 108.4 137.3C113.5 142.1 115.2 144.5 116.1 148.3C117.7 154 119.7 154.4 120.6 149.2C122.8 137.2 127.9 129.8 140.8 119.8C152.7 110.6 156.1 106 161.9 91.8C166 81.7 169.3 76.2 176 68.5C180.5 63.3 181 60.4 178.4 54C176.8 50 173.4 46.9 169.4 45.6C167.4 45 167.1 45.5 166 50.2Z" fill="#C1156B"/>
<path d="M127.7 61.2C127 71.8 124.7 80.5 122.2 81.9C120.6 82.9 120.6 82.9 122.3 83C127.9 83.1 129.7 78.9 130.7 64C131.2 56.2 131 54.2 129.8 53.2C128.5 52.2 128.2 53.2 127.7 61.2Z" fill="#EC4096"/>
<path d="M100 71.3C100 83.3 97.4 93 93.7 94.8C91.5 95.8 91.5 95.9 94 95.9C98.8 96.1 100.6 93.7 101.9 85.8C103.4 77 103 65.8 101.3 65.2C100.3 64.9 100 66.6 100 71.3Z" fill="#EC4096"/>
<path d="M150.7 83.8C136.9 104 118.2 113.8 95.2999 112.8C86.9999 112.5 84.4999 112 79.7999 109.7C74.0999 106.9 67.9999 100.4 67.9999 97.1C67.8999 94.2 65.2999 100.3 63.4999 107.4C60.9999 117.5 61.0999 128.4 63.6999 134.1L65.7999 138.7L73.8999 138.8C87.5999 139 99.8999 143.1 107.3 150C112.1 154.3 117 155.5 117 152.2C117 148.3 112.1 140.4 107.1 136.2C102.6 132.4 102 131.4 102 128.1C102 123.3 103.8 121.6 112.6 118.6C126.6 113.9 133.8 109.1 143 98.3C147.2 93.5 157 77 155.7 77C155.5 77 153.3 80.1 150.7 83.8Z" fill="#EC4096"/>
<path d="M154.9 132.5C161.1 135.3 163.8 141.1 163.9 151.6C164 158.7 162 167.6 159.4 171.7C158.6 173 157.2 175.2 156.3 176.7C154.7 179.2 155.1 179 161 175.1C173.3 166.8 177 162.2 177 154.8C177 141.3 169.4 132.6 156.7 131.4L151.5 130.9L154.9 132.5Z" fill="#EC96C1"/>
<path d="M124.6 46.6C108.3 49.8 88.3 63 78.8 76.8C76.2 80.5 71 91.1 71 92.6C71 92.9 73.6 89.8 76.8 85.8C80 81.8 84.3 77.1 86.3 75.3C88.7 73.2 90 71.2 90 69.6C90 66.4 93.4 64 97.8 64C99.7 64 102.4 63.2 103.8 62.1C105.3 61.1 109 59 112 57.5C115 56 118.6 53.9 119.9 52.9C121.2 51.8 123.2 51 124.2 51C125.3 51 129.2 50.1 132.8 49.1C136.5 48 141.5 46.7 144 46.2C148.2 45.3 147.9 45.2 140 45.2C135.3 45.2 128.4 45.8 124.6 46.6Z" fill="#ECECC1"/>
<path d="M145.5 133.6C135.6 139 131.8 146.2 128.1 167.4C126.9 173.9 125.1 181 124 183.3C122.9 185.5 122.2 187.6 122.5 187.9C123.1 188.4 139.4 185.6 145.4 183.9C151 182.4 158.2 174.7 160.9 167.7C165.4 155.5 164.4 140.5 158.6 135.1C155.5 132.2 149.4 131.5 145.5 133.6Z" fill="#ECECEC"/>
</svg>
