<svg width="173" height="173" viewBox="0 0 173 173" fill="none" xmlns="http://www.w3.org/2000/svg">
<path d="M67.3821 1.00444C54.3322 4.30441 41.5823 14.6543 36.9324 25.9043C35.7324 28.9042 33.7824 31.0042 32.1324 31.0042C30.7824 31.0042 25.9824 33.1042 21.6325 35.5042C1.38261 47.2041 -5.66734 73.6039 5.88258 94.3038C9.93255 101.504 10.2326 103.304 9.63256 112.304C8.88256 125.054 12.0325 135.103 19.9825 144.103C28.3824 153.703 40.3823 159.253 52.8322 159.403C61.3822 159.403 63.4822 160.003 69.1821 164.203C72.9321 166.903 79.5321 170.203 84.032 171.403C103.382 177.103 126.032 167.053 135.032 149.053C137.432 144.253 139.532 142.153 142.532 141.553C148.832 140.203 159.931 132.104 164.581 125.504C175.081 110.504 175.531 90.7038 165.931 76.4539C163.681 73.1539 163.081 69.404 163.081 58.754C162.931 47.8041 162.331 44.0541 159.631 38.9542C151.232 23.0543 137.432 14.0543 120.332 13.7543C112.532 13.6043 109.382 12.8544 106.232 10.3044C95.5819 1.90443 79.3821 -1.99554 67.3821 1.00444ZM91.532 14.8043C99.4819 18.5543 100.232 17.8043 76.5321 31.1542C67.5321 36.2542 60.1822 40.4542 60.0322 40.4542C59.8822 40.6042 59.4322 52.3041 58.9822 66.554L58.0822 92.3538L50.7323 87.8538L43.5323 83.3539L44.1323 59.054C44.7323 32.8042 45.4823 29.8042 53.8822 21.4043C63.6322 11.5044 79.2321 8.80438 91.532 14.8043ZM129.482 26.5043C141.932 29.9542 152.582 44.8041 151.532 56.954L151.082 62.354L133.082 52.0041C123.182 46.3041 114.182 41.5042 113.132 41.5042C112.082 41.5042 101.882 46.9041 90.332 53.5041C78.7821 60.104 69.0321 65.504 68.5821 65.504C68.1321 65.504 67.8321 61.904 67.8321 57.404V49.3041L85.382 39.2542C94.982 33.7042 105.032 28.1542 107.432 27.1043C112.982 24.7043 122.132 24.4043 129.482 26.5043ZM33.3324 64.604V86.3538L37.5324 89.2038C39.7823 90.7038 48.6323 95.9538 57.3322 100.754C80.732 113.654 79.5321 112.304 70.8321 117.104L63.3322 121.154L46.6823 111.854C24.4824 99.4037 18.9325 95.2038 15.6325 88.4538C9.63256 76.6039 10.2326 65.354 17.2825 54.8541C20.4325 50.0541 29.2824 43.0041 31.9824 43.0041C32.7324 43.0041 33.3324 52.7541 33.3324 64.604ZM130.832 63.854C155.432 78.1039 159.631 82.9039 160.531 97.7538C160.981 105.554 160.531 108.704 157.831 114.254C154.832 120.404 144.632 130.004 141.182 130.004C140.432 130.004 139.682 120.104 139.532 107.804L139.082 85.7538L117.632 73.6039C105.932 67.004 96.0319 61.154 95.5819 60.704C94.832 60.104 108.182 52.0041 109.832 52.1541C110.282 52.1541 119.732 57.404 130.832 63.854ZM95.8819 70.3039L105.332 75.2539V86.5038V97.7538L95.8819 102.854L86.282 107.954L77.1321 102.854L67.8321 97.7538V86.5038V75.2539L76.5321 70.4539C81.182 67.754 85.382 65.504 85.832 65.504C86.282 65.504 90.782 67.604 95.8819 70.3039ZM121.082 84.5538L127.832 88.7538V113.204C127.832 134.353 127.382 138.403 124.982 143.203C118.982 154.753 108.032 161.503 95.282 161.503C87.782 161.503 74.5821 156.553 75.9321 154.303C76.3821 153.553 84.782 148.453 94.832 142.753L112.832 132.554V106.604C112.832 92.2038 113.132 80.5039 113.582 80.5039C113.882 80.5039 117.332 82.3039 121.082 84.5538ZM105.332 115.604V123.704L85.232 135.253C68.8821 144.553 63.6322 146.803 56.7322 147.553C45.3323 148.753 36.6324 145.303 28.8324 136.453C22.8325 129.554 20.7325 123.554 21.6325 115.454L22.0825 110.804L40.0823 121.154C49.9823 126.854 58.8322 131.504 59.7322 131.504C60.6322 131.504 70.8321 126.104 82.232 119.504C93.782 113.054 103.532 107.654 104.282 107.504C104.882 107.504 105.332 111.104 105.332 115.604Z" fill="white"/>
</svg>
